M48
; DRILL file {KiCad 7.0.10} date Fri Mar  1 13:19:22 2024
; FORMAT={-:-/ absolute / metric / decimal}
; #@! TF.CreationDate,2024-03-01T13:19:22+01:00
; #@! TF.GenerationSoftware,Kicad,Pcbnew,7.0.10
; #@! TF.FileFunction,MixedPlating,1,2
FMAT,2
METRIC
; #@! TA.AperFunction,Plated,PTH,ViaDrill
T1C0.400
; #@! TA.AperFunction,Plated,PTH,ComponentDrill
T2C0.762
; #@! TA.AperFunction,Plated,PTH,ComponentDrill
T3C1.000
; #@! TA.AperFunction,Plated,PTH,ComponentDrill
T4C1.100
; #@! TA.AperFunction,NonPlated,NPTH,ComponentDrill
T5C1.100
; #@! TA.AperFunction,NonPlated,NPTH,ComponentDrill
T6C3.200
%
G90
G05
T1
X139.7Y-76.835
X139.7Y-106.68
X151.765Y-79.375
X151.765Y-83.82
X151.765Y-88.9
X151.765Y-93.98
X151.765Y-99.06
T2
X132.08Y-73.66
X132.08Y-76.2
X132.08Y-78.74
X132.08Y-81.28
X132.08Y-83.82
X132.08Y-86.36
X132.08Y-88.9
X132.08Y-91.44
X132.08Y-93.98
X132.08Y-96.52
X132.08Y-99.06
X132.08Y-101.6
X132.08Y-104.14
X132.08Y-106.68
X132.08Y-109.22
X155.575Y-73.66
X155.575Y-76.2
X155.575Y-78.74
X155.575Y-81.28
X155.575Y-83.82
X155.575Y-86.36
X155.575Y-88.9
X155.575Y-91.44
X155.575Y-93.98
X155.575Y-96.52
X155.575Y-99.06
X155.575Y-101.6
X155.575Y-104.14
X155.575Y-106.68
X155.575Y-109.22
T3
X145.415Y-76.835
X146.685Y-106.045
X147.955Y-76.835
X149.225Y-106.045
X150.495Y-76.835
X151.765Y-106.045
T4
X139.7Y-80.01
X139.7Y-82.55
X139.7Y-85.09
X139.7Y-87.63
X139.7Y-90.17
X139.7Y-92.71
X139.7Y-95.25
X139.7Y-97.79
X139.7Y-100.33
X139.7Y-102.87
X140.97Y-111.76
X143.51Y-111.76
X146.05Y-111.76
T5
X140.97Y-114.3
X143.51Y-114.3
X146.05Y-114.3
T6
X133.35Y-69.85
X133.35Y-113.03
X154.305Y-69.85
X154.305Y-113.03
M30
