%TF.GenerationSoftware,KiCad,Pcbnew,7.0.10*%
%TF.CreationDate,2024-03-01T13:19:40+01:00*%
%TF.ProjectId,Temp Sensor PCB,54656d70-2053-4656-9e73-6f7220504342,rev?*%
%TF.SameCoordinates,Original*%
%TF.FileFunction,Legend,Top*%
%TF.FilePolarity,Positive*%
%FSLAX46Y46*%
G04 Gerber Fmt 4.6, Leading zero omitted, Abs format (unit mm)*
G04 Created by KiCad (PCBNEW 7.0.10) date 2024-03-01 13:19:40*
%MOMM*%
%LPD*%
G01*
G04 APERTURE LIST*
%ADD10C,0.150000*%
%ADD11C,0.120000*%
G04 APERTURE END LIST*
D10*
X133562969Y-87134819D02*
X134058207Y-87134819D01*
X134058207Y-87134819D02*
X133791541Y-87515771D01*
X133791541Y-87515771D02*
X133905826Y-87515771D01*
X133905826Y-87515771D02*
X133982017Y-87563390D01*
X133982017Y-87563390D02*
X134020112Y-87611009D01*
X134020112Y-87611009D02*
X134058207Y-87706247D01*
X134058207Y-87706247D02*
X134058207Y-87944342D01*
X134058207Y-87944342D02*
X134020112Y-88039580D01*
X134020112Y-88039580D02*
X133982017Y-88087200D01*
X133982017Y-88087200D02*
X133905826Y-88134819D01*
X133905826Y-88134819D02*
X133677255Y-88134819D01*
X133677255Y-88134819D02*
X133601064Y-88087200D01*
X133601064Y-88087200D02*
X133562969Y-88039580D01*
X134286779Y-87134819D02*
X134553446Y-88134819D01*
X134553446Y-88134819D02*
X134820112Y-87134819D01*
X135010588Y-87134819D02*
X135505826Y-87134819D01*
X135505826Y-87134819D02*
X135239160Y-87515771D01*
X135239160Y-87515771D02*
X135353445Y-87515771D01*
X135353445Y-87515771D02*
X135429636Y-87563390D01*
X135429636Y-87563390D02*
X135467731Y-87611009D01*
X135467731Y-87611009D02*
X135505826Y-87706247D01*
X135505826Y-87706247D02*
X135505826Y-87944342D01*
X135505826Y-87944342D02*
X135467731Y-88039580D01*
X135467731Y-88039580D02*
X135429636Y-88087200D01*
X135429636Y-88087200D02*
X135353445Y-88134819D01*
X135353445Y-88134819D02*
X135124874Y-88134819D01*
X135124874Y-88134819D02*
X135048683Y-88087200D01*
X135048683Y-88087200D02*
X135010588Y-88039580D01*
X133562969Y-102374819D02*
X134058207Y-102374819D01*
X134058207Y-102374819D02*
X133791541Y-102755771D01*
X133791541Y-102755771D02*
X133905826Y-102755771D01*
X133905826Y-102755771D02*
X133982017Y-102803390D01*
X133982017Y-102803390D02*
X134020112Y-102851009D01*
X134020112Y-102851009D02*
X134058207Y-102946247D01*
X134058207Y-102946247D02*
X134058207Y-103184342D01*
X134058207Y-103184342D02*
X134020112Y-103279580D01*
X134020112Y-103279580D02*
X133982017Y-103327200D01*
X133982017Y-103327200D02*
X133905826Y-103374819D01*
X133905826Y-103374819D02*
X133677255Y-103374819D01*
X133677255Y-103374819D02*
X133601064Y-103327200D01*
X133601064Y-103327200D02*
X133562969Y-103279580D01*
X134286779Y-102374819D02*
X134553446Y-103374819D01*
X134553446Y-103374819D02*
X134820112Y-102374819D01*
X135010588Y-102374819D02*
X135505826Y-102374819D01*
X135505826Y-102374819D02*
X135239160Y-102755771D01*
X135239160Y-102755771D02*
X135353445Y-102755771D01*
X135353445Y-102755771D02*
X135429636Y-102803390D01*
X135429636Y-102803390D02*
X135467731Y-102851009D01*
X135467731Y-102851009D02*
X135505826Y-102946247D01*
X135505826Y-102946247D02*
X135505826Y-103184342D01*
X135505826Y-103184342D02*
X135467731Y-103279580D01*
X135467731Y-103279580D02*
X135429636Y-103327200D01*
X135429636Y-103327200D02*
X135353445Y-103374819D01*
X135353445Y-103374819D02*
X135124874Y-103374819D01*
X135124874Y-103374819D02*
X135048683Y-103327200D01*
X135048683Y-103327200D02*
X135010588Y-103279580D01*
X148002874Y-111391819D02*
X148269541Y-112391819D01*
X148269541Y-112391819D02*
X148536207Y-111391819D01*
X148764778Y-112344200D02*
X148879064Y-112391819D01*
X148879064Y-112391819D02*
X149069540Y-112391819D01*
X149069540Y-112391819D02*
X149145731Y-112344200D01*
X149145731Y-112344200D02*
X149183826Y-112296580D01*
X149183826Y-112296580D02*
X149221921Y-112201342D01*
X149221921Y-112201342D02*
X149221921Y-112106104D01*
X149221921Y-112106104D02*
X149183826Y-112010866D01*
X149183826Y-112010866D02*
X149145731Y-111963247D01*
X149145731Y-111963247D02*
X149069540Y-111915628D01*
X149069540Y-111915628D02*
X148917159Y-111868009D01*
X148917159Y-111868009D02*
X148840969Y-111820390D01*
X148840969Y-111820390D02*
X148802874Y-111772771D01*
X148802874Y-111772771D02*
X148764778Y-111677533D01*
X148764778Y-111677533D02*
X148764778Y-111582295D01*
X148764778Y-111582295D02*
X148802874Y-111487057D01*
X148802874Y-111487057D02*
X148840969Y-111439438D01*
X148840969Y-111439438D02*
X148917159Y-111391819D01*
X148917159Y-111391819D02*
X149107636Y-111391819D01*
X149107636Y-111391819D02*
X149221921Y-111439438D01*
X142694207Y-107375438D02*
X142618017Y-107327819D01*
X142618017Y-107327819D02*
X142503731Y-107327819D01*
X142503731Y-107327819D02*
X142389445Y-107375438D01*
X142389445Y-107375438D02*
X142313255Y-107470676D01*
X142313255Y-107470676D02*
X142275160Y-107565914D01*
X142275160Y-107565914D02*
X142237064Y-107756390D01*
X142237064Y-107756390D02*
X142237064Y-107899247D01*
X142237064Y-107899247D02*
X142275160Y-108089723D01*
X142275160Y-108089723D02*
X142313255Y-108184961D01*
X142313255Y-108184961D02*
X142389445Y-108280200D01*
X142389445Y-108280200D02*
X142503731Y-108327819D01*
X142503731Y-108327819D02*
X142579922Y-108327819D01*
X142579922Y-108327819D02*
X142694207Y-108280200D01*
X142694207Y-108280200D02*
X142732303Y-108232580D01*
X142732303Y-108232580D02*
X142732303Y-107899247D01*
X142732303Y-107899247D02*
X142579922Y-107899247D01*
X143075160Y-108327819D02*
X143075160Y-107327819D01*
X143075160Y-107327819D02*
X143532303Y-108327819D01*
X143532303Y-108327819D02*
X143532303Y-107327819D01*
X143913255Y-108327819D02*
X143913255Y-107327819D01*
X143913255Y-107327819D02*
X144103731Y-107327819D01*
X144103731Y-107327819D02*
X144218017Y-107375438D01*
X144218017Y-107375438D02*
X144294207Y-107470676D01*
X144294207Y-107470676D02*
X144332302Y-107565914D01*
X144332302Y-107565914D02*
X144370398Y-107756390D01*
X144370398Y-107756390D02*
X144370398Y-107899247D01*
X144370398Y-107899247D02*
X144332302Y-108089723D01*
X144332302Y-108089723D02*
X144294207Y-108184961D01*
X144294207Y-108184961D02*
X144218017Y-108280200D01*
X144218017Y-108280200D02*
X144103731Y-108327819D01*
X144103731Y-108327819D02*
X143913255Y-108327819D01*
X145246969Y-78625819D02*
X145742207Y-78625819D01*
X145742207Y-78625819D02*
X145475541Y-79006771D01*
X145475541Y-79006771D02*
X145589826Y-79006771D01*
X145589826Y-79006771D02*
X145666017Y-79054390D01*
X145666017Y-79054390D02*
X145704112Y-79102009D01*
X145704112Y-79102009D02*
X145742207Y-79197247D01*
X145742207Y-79197247D02*
X145742207Y-79435342D01*
X145742207Y-79435342D02*
X145704112Y-79530580D01*
X145704112Y-79530580D02*
X145666017Y-79578200D01*
X145666017Y-79578200D02*
X145589826Y-79625819D01*
X145589826Y-79625819D02*
X145361255Y-79625819D01*
X145361255Y-79625819D02*
X145285064Y-79578200D01*
X145285064Y-79578200D02*
X145246969Y-79530580D01*
X134274160Y-93214819D02*
X134274160Y-92214819D01*
X134274160Y-92214819D02*
X134464636Y-92214819D01*
X134464636Y-92214819D02*
X134578922Y-92262438D01*
X134578922Y-92262438D02*
X134655112Y-92357676D01*
X134655112Y-92357676D02*
X134693207Y-92452914D01*
X134693207Y-92452914D02*
X134731303Y-92643390D01*
X134731303Y-92643390D02*
X134731303Y-92786247D01*
X134731303Y-92786247D02*
X134693207Y-92976723D01*
X134693207Y-92976723D02*
X134655112Y-93071961D01*
X134655112Y-93071961D02*
X134578922Y-93167200D01*
X134578922Y-93167200D02*
X134464636Y-93214819D01*
X134464636Y-93214819D02*
X134274160Y-93214819D01*
X135226541Y-92214819D02*
X135302731Y-92214819D01*
X135302731Y-92214819D02*
X135378922Y-92262438D01*
X135378922Y-92262438D02*
X135417017Y-92310057D01*
X135417017Y-92310057D02*
X135455112Y-92405295D01*
X135455112Y-92405295D02*
X135493207Y-92595771D01*
X135493207Y-92595771D02*
X135493207Y-92833866D01*
X135493207Y-92833866D02*
X135455112Y-93024342D01*
X135455112Y-93024342D02*
X135417017Y-93119580D01*
X135417017Y-93119580D02*
X135378922Y-93167200D01*
X135378922Y-93167200D02*
X135302731Y-93214819D01*
X135302731Y-93214819D02*
X135226541Y-93214819D01*
X135226541Y-93214819D02*
X135150350Y-93167200D01*
X135150350Y-93167200D02*
X135112255Y-93119580D01*
X135112255Y-93119580D02*
X135074160Y-93024342D01*
X135074160Y-93024342D02*
X135036064Y-92833866D01*
X135036064Y-92833866D02*
X135036064Y-92595771D01*
X135036064Y-92595771D02*
X135074160Y-92405295D01*
X135074160Y-92405295D02*
X135112255Y-92310057D01*
X135112255Y-92310057D02*
X135150350Y-92262438D01*
X135150350Y-92262438D02*
X135226541Y-92214819D01*
X147825064Y-78721057D02*
X147863160Y-78673438D01*
X147863160Y-78673438D02*
X147939350Y-78625819D01*
X147939350Y-78625819D02*
X148129826Y-78625819D01*
X148129826Y-78625819D02*
X148206017Y-78673438D01*
X148206017Y-78673438D02*
X148244112Y-78721057D01*
X148244112Y-78721057D02*
X148282207Y-78816295D01*
X148282207Y-78816295D02*
X148282207Y-78911533D01*
X148282207Y-78911533D02*
X148244112Y-79054390D01*
X148244112Y-79054390D02*
X147786969Y-79625819D01*
X147786969Y-79625819D02*
X148282207Y-79625819D01*
X133601064Y-83007200D02*
X133715350Y-83054819D01*
X133715350Y-83054819D02*
X133905826Y-83054819D01*
X133905826Y-83054819D02*
X133982017Y-83007200D01*
X133982017Y-83007200D02*
X134020112Y-82959580D01*
X134020112Y-82959580D02*
X134058207Y-82864342D01*
X134058207Y-82864342D02*
X134058207Y-82769104D01*
X134058207Y-82769104D02*
X134020112Y-82673866D01*
X134020112Y-82673866D02*
X133982017Y-82626247D01*
X133982017Y-82626247D02*
X133905826Y-82578628D01*
X133905826Y-82578628D02*
X133753445Y-82531009D01*
X133753445Y-82531009D02*
X133677255Y-82483390D01*
X133677255Y-82483390D02*
X133639160Y-82435771D01*
X133639160Y-82435771D02*
X133601064Y-82340533D01*
X133601064Y-82340533D02*
X133601064Y-82245295D01*
X133601064Y-82245295D02*
X133639160Y-82150057D01*
X133639160Y-82150057D02*
X133677255Y-82102438D01*
X133677255Y-82102438D02*
X133753445Y-82054819D01*
X133753445Y-82054819D02*
X133943922Y-82054819D01*
X133943922Y-82054819D02*
X134058207Y-82102438D01*
X134401065Y-83054819D02*
X134401065Y-82054819D01*
X134401065Y-82054819D02*
X134591541Y-82054819D01*
X134591541Y-82054819D02*
X134705827Y-82102438D01*
X134705827Y-82102438D02*
X134782017Y-82197676D01*
X134782017Y-82197676D02*
X134820112Y-82292914D01*
X134820112Y-82292914D02*
X134858208Y-82483390D01*
X134858208Y-82483390D02*
X134858208Y-82626247D01*
X134858208Y-82626247D02*
X134820112Y-82816723D01*
X134820112Y-82816723D02*
X134782017Y-82911961D01*
X134782017Y-82911961D02*
X134705827Y-83007200D01*
X134705827Y-83007200D02*
X134591541Y-83054819D01*
X134591541Y-83054819D02*
X134401065Y-83054819D01*
X135162969Y-82769104D02*
X135543922Y-82769104D01*
X135086779Y-83054819D02*
X135353446Y-82054819D01*
X135353446Y-82054819D02*
X135620112Y-83054819D01*
X133602969Y-80467200D02*
X133718684Y-80514819D01*
X133718684Y-80514819D02*
X133911541Y-80514819D01*
X133911541Y-80514819D02*
X133988684Y-80467200D01*
X133988684Y-80467200D02*
X134027255Y-80419580D01*
X134027255Y-80419580D02*
X134065826Y-80324342D01*
X134065826Y-80324342D02*
X134065826Y-80229104D01*
X134065826Y-80229104D02*
X134027255Y-80133866D01*
X134027255Y-80133866D02*
X133988684Y-80086247D01*
X133988684Y-80086247D02*
X133911541Y-80038628D01*
X133911541Y-80038628D02*
X133757255Y-79991009D01*
X133757255Y-79991009D02*
X133680112Y-79943390D01*
X133680112Y-79943390D02*
X133641541Y-79895771D01*
X133641541Y-79895771D02*
X133602969Y-79800533D01*
X133602969Y-79800533D02*
X133602969Y-79705295D01*
X133602969Y-79705295D02*
X133641541Y-79610057D01*
X133641541Y-79610057D02*
X133680112Y-79562438D01*
X133680112Y-79562438D02*
X133757255Y-79514819D01*
X133757255Y-79514819D02*
X133950112Y-79514819D01*
X133950112Y-79514819D02*
X134065826Y-79562438D01*
X134875827Y-80419580D02*
X134837255Y-80467200D01*
X134837255Y-80467200D02*
X134721541Y-80514819D01*
X134721541Y-80514819D02*
X134644398Y-80514819D01*
X134644398Y-80514819D02*
X134528684Y-80467200D01*
X134528684Y-80467200D02*
X134451541Y-80371961D01*
X134451541Y-80371961D02*
X134412970Y-80276723D01*
X134412970Y-80276723D02*
X134374398Y-80086247D01*
X134374398Y-80086247D02*
X134374398Y-79943390D01*
X134374398Y-79943390D02*
X134412970Y-79752914D01*
X134412970Y-79752914D02*
X134451541Y-79657676D01*
X134451541Y-79657676D02*
X134528684Y-79562438D01*
X134528684Y-79562438D02*
X134644398Y-79514819D01*
X134644398Y-79514819D02*
X134721541Y-79514819D01*
X134721541Y-79514819D02*
X134837255Y-79562438D01*
X134837255Y-79562438D02*
X134875827Y-79610057D01*
X135608684Y-80514819D02*
X135222970Y-80514819D01*
X135222970Y-80514819D02*
X135222970Y-79514819D01*
X149107731Y-108089819D02*
X149107731Y-108804104D01*
X149107731Y-108804104D02*
X149069636Y-108946961D01*
X149069636Y-108946961D02*
X148993445Y-109042200D01*
X148993445Y-109042200D02*
X148879160Y-109089819D01*
X148879160Y-109089819D02*
X148802969Y-109089819D01*
X149907731Y-109089819D02*
X149450588Y-109089819D01*
X149679160Y-109089819D02*
X149679160Y-108089819D01*
X149679160Y-108089819D02*
X149602969Y-108232676D01*
X149602969Y-108232676D02*
X149526779Y-108327914D01*
X149526779Y-108327914D02*
X149450588Y-108375533D01*
X151800112Y-103009819D02*
X151419160Y-103009819D01*
X151419160Y-103009819D02*
X151381064Y-103486009D01*
X151381064Y-103486009D02*
X151419160Y-103438390D01*
X151419160Y-103438390D02*
X151495350Y-103390771D01*
X151495350Y-103390771D02*
X151685826Y-103390771D01*
X151685826Y-103390771D02*
X151762017Y-103438390D01*
X151762017Y-103438390D02*
X151800112Y-103486009D01*
X151800112Y-103486009D02*
X151838207Y-103581247D01*
X151838207Y-103581247D02*
X151838207Y-103819342D01*
X151838207Y-103819342D02*
X151800112Y-103914580D01*
X151800112Y-103914580D02*
X151762017Y-103962200D01*
X151762017Y-103962200D02*
X151685826Y-104009819D01*
X151685826Y-104009819D02*
X151495350Y-104009819D01*
X151495350Y-104009819D02*
X151419160Y-103962200D01*
X151419160Y-103962200D02*
X151381064Y-103914580D01*
X152066779Y-103009819D02*
X152333446Y-104009819D01*
X152333446Y-104009819D02*
X152600112Y-103009819D01*
X136318874Y-111391819D02*
X136585541Y-112391819D01*
X136585541Y-112391819D02*
X136852207Y-111391819D01*
X137271255Y-111391819D02*
X137423636Y-111391819D01*
X137423636Y-111391819D02*
X137499826Y-111439438D01*
X137499826Y-111439438D02*
X137576017Y-111534676D01*
X137576017Y-111534676D02*
X137614112Y-111725152D01*
X137614112Y-111725152D02*
X137614112Y-112058485D01*
X137614112Y-112058485D02*
X137576017Y-112248961D01*
X137576017Y-112248961D02*
X137499826Y-112344200D01*
X137499826Y-112344200D02*
X137423636Y-112391819D01*
X137423636Y-112391819D02*
X137271255Y-112391819D01*
X137271255Y-112391819D02*
X137195064Y-112344200D01*
X137195064Y-112344200D02*
X137118874Y-112248961D01*
X137118874Y-112248961D02*
X137080778Y-112058485D01*
X137080778Y-112058485D02*
X137080778Y-111725152D01*
X137080778Y-111725152D02*
X137118874Y-111534676D01*
X137118874Y-111534676D02*
X137195064Y-111439438D01*
X137195064Y-111439438D02*
X137271255Y-111391819D01*
X137956969Y-111391819D02*
X137956969Y-112201342D01*
X137956969Y-112201342D02*
X137995064Y-112296580D01*
X137995064Y-112296580D02*
X138033159Y-112344200D01*
X138033159Y-112344200D02*
X138109350Y-112391819D01*
X138109350Y-112391819D02*
X138261731Y-112391819D01*
X138261731Y-112391819D02*
X138337921Y-112344200D01*
X138337921Y-112344200D02*
X138376016Y-112296580D01*
X138376016Y-112296580D02*
X138414112Y-112201342D01*
X138414112Y-112201342D02*
X138414112Y-111391819D01*
X138680778Y-111391819D02*
X139137921Y-111391819D01*
X138909349Y-112391819D02*
X138909349Y-111391819D01*
X134058207Y-84642438D02*
X133982017Y-84594819D01*
X133982017Y-84594819D02*
X133867731Y-84594819D01*
X133867731Y-84594819D02*
X133753445Y-84642438D01*
X133753445Y-84642438D02*
X133677255Y-84737676D01*
X133677255Y-84737676D02*
X133639160Y-84832914D01*
X133639160Y-84832914D02*
X133601064Y-85023390D01*
X133601064Y-85023390D02*
X133601064Y-85166247D01*
X133601064Y-85166247D02*
X133639160Y-85356723D01*
X133639160Y-85356723D02*
X133677255Y-85451961D01*
X133677255Y-85451961D02*
X133753445Y-85547200D01*
X133753445Y-85547200D02*
X133867731Y-85594819D01*
X133867731Y-85594819D02*
X133943922Y-85594819D01*
X133943922Y-85594819D02*
X134058207Y-85547200D01*
X134058207Y-85547200D02*
X134096303Y-85499580D01*
X134096303Y-85499580D02*
X134096303Y-85166247D01*
X134096303Y-85166247D02*
X133943922Y-85166247D01*
X134439160Y-85594819D02*
X134439160Y-84594819D01*
X134439160Y-84594819D02*
X134896303Y-85594819D01*
X134896303Y-85594819D02*
X134896303Y-84594819D01*
X135277255Y-85594819D02*
X135277255Y-84594819D01*
X135277255Y-84594819D02*
X135467731Y-84594819D01*
X135467731Y-84594819D02*
X135582017Y-84642438D01*
X135582017Y-84642438D02*
X135658207Y-84737676D01*
X135658207Y-84737676D02*
X135696302Y-84832914D01*
X135696302Y-84832914D02*
X135734398Y-85023390D01*
X135734398Y-85023390D02*
X135734398Y-85166247D01*
X135734398Y-85166247D02*
X135696302Y-85356723D01*
X135696302Y-85356723D02*
X135658207Y-85451961D01*
X135658207Y-85451961D02*
X135582017Y-85547200D01*
X135582017Y-85547200D02*
X135467731Y-85594819D01*
X135467731Y-85594819D02*
X135277255Y-85594819D01*
X153171731Y-76085819D02*
X153171731Y-76800104D01*
X153171731Y-76800104D02*
X153133636Y-76942961D01*
X153133636Y-76942961D02*
X153057445Y-77038200D01*
X153057445Y-77038200D02*
X152943160Y-77085819D01*
X152943160Y-77085819D02*
X152866969Y-77085819D01*
X153514588Y-76181057D02*
X153552684Y-76133438D01*
X153552684Y-76133438D02*
X153628874Y-76085819D01*
X153628874Y-76085819D02*
X153819350Y-76085819D01*
X153819350Y-76085819D02*
X153895541Y-76133438D01*
X153895541Y-76133438D02*
X153933636Y-76181057D01*
X153933636Y-76181057D02*
X153971731Y-76276295D01*
X153971731Y-76276295D02*
X153971731Y-76371533D01*
X153971731Y-76371533D02*
X153933636Y-76514390D01*
X153933636Y-76514390D02*
X153476493Y-77085819D01*
X153476493Y-77085819D02*
X153971731Y-77085819D01*
X133562969Y-99834819D02*
X134058207Y-99834819D01*
X134058207Y-99834819D02*
X133791541Y-100215771D01*
X133791541Y-100215771D02*
X133905826Y-100215771D01*
X133905826Y-100215771D02*
X133982017Y-100263390D01*
X133982017Y-100263390D02*
X134020112Y-100311009D01*
X134020112Y-100311009D02*
X134058207Y-100406247D01*
X134058207Y-100406247D02*
X134058207Y-100644342D01*
X134058207Y-100644342D02*
X134020112Y-100739580D01*
X134020112Y-100739580D02*
X133982017Y-100787200D01*
X133982017Y-100787200D02*
X133905826Y-100834819D01*
X133905826Y-100834819D02*
X133677255Y-100834819D01*
X133677255Y-100834819D02*
X133601064Y-100787200D01*
X133601064Y-100787200D02*
X133562969Y-100739580D01*
X134286779Y-99834819D02*
X134553446Y-100834819D01*
X134553446Y-100834819D02*
X134820112Y-99834819D01*
X135010588Y-99834819D02*
X135505826Y-99834819D01*
X135505826Y-99834819D02*
X135239160Y-100215771D01*
X135239160Y-100215771D02*
X135353445Y-100215771D01*
X135353445Y-100215771D02*
X135429636Y-100263390D01*
X135429636Y-100263390D02*
X135467731Y-100311009D01*
X135467731Y-100311009D02*
X135505826Y-100406247D01*
X135505826Y-100406247D02*
X135505826Y-100644342D01*
X135505826Y-100644342D02*
X135467731Y-100739580D01*
X135467731Y-100739580D02*
X135429636Y-100787200D01*
X135429636Y-100787200D02*
X135353445Y-100834819D01*
X135353445Y-100834819D02*
X135124874Y-100834819D01*
X135124874Y-100834819D02*
X135048683Y-100787200D01*
X135048683Y-100787200D02*
X135010588Y-100739580D01*
X145627969Y-103009819D02*
X146123207Y-103009819D01*
X146123207Y-103009819D02*
X145856541Y-103390771D01*
X145856541Y-103390771D02*
X145970826Y-103390771D01*
X145970826Y-103390771D02*
X146047017Y-103438390D01*
X146047017Y-103438390D02*
X146085112Y-103486009D01*
X146085112Y-103486009D02*
X146123207Y-103581247D01*
X146123207Y-103581247D02*
X146123207Y-103819342D01*
X146123207Y-103819342D02*
X146085112Y-103914580D01*
X146085112Y-103914580D02*
X146047017Y-103962200D01*
X146047017Y-103962200D02*
X145970826Y-104009819D01*
X145970826Y-104009819D02*
X145742255Y-104009819D01*
X145742255Y-104009819D02*
X145666064Y-103962200D01*
X145666064Y-103962200D02*
X145627969Y-103914580D01*
X146351779Y-103009819D02*
X146618446Y-104009819D01*
X146618446Y-104009819D02*
X146885112Y-103009819D01*
X147075588Y-103009819D02*
X147570826Y-103009819D01*
X147570826Y-103009819D02*
X147304160Y-103390771D01*
X147304160Y-103390771D02*
X147418445Y-103390771D01*
X147418445Y-103390771D02*
X147494636Y-103438390D01*
X147494636Y-103438390D02*
X147532731Y-103486009D01*
X147532731Y-103486009D02*
X147570826Y-103581247D01*
X147570826Y-103581247D02*
X147570826Y-103819342D01*
X147570826Y-103819342D02*
X147532731Y-103914580D01*
X147532731Y-103914580D02*
X147494636Y-103962200D01*
X147494636Y-103962200D02*
X147418445Y-104009819D01*
X147418445Y-104009819D02*
X147189874Y-104009819D01*
X147189874Y-104009819D02*
X147113683Y-103962200D01*
X147113683Y-103962200D02*
X147075588Y-103914580D01*
X134058207Y-97342438D02*
X133982017Y-97294819D01*
X133982017Y-97294819D02*
X133867731Y-97294819D01*
X133867731Y-97294819D02*
X133753445Y-97342438D01*
X133753445Y-97342438D02*
X133677255Y-97437676D01*
X133677255Y-97437676D02*
X133639160Y-97532914D01*
X133639160Y-97532914D02*
X133601064Y-97723390D01*
X133601064Y-97723390D02*
X133601064Y-97866247D01*
X133601064Y-97866247D02*
X133639160Y-98056723D01*
X133639160Y-98056723D02*
X133677255Y-98151961D01*
X133677255Y-98151961D02*
X133753445Y-98247200D01*
X133753445Y-98247200D02*
X133867731Y-98294819D01*
X133867731Y-98294819D02*
X133943922Y-98294819D01*
X133943922Y-98294819D02*
X134058207Y-98247200D01*
X134058207Y-98247200D02*
X134096303Y-98199580D01*
X134096303Y-98199580D02*
X134096303Y-97866247D01*
X134096303Y-97866247D02*
X133943922Y-97866247D01*
X134439160Y-98294819D02*
X134439160Y-97294819D01*
X134439160Y-97294819D02*
X134896303Y-98294819D01*
X134896303Y-98294819D02*
X134896303Y-97294819D01*
X135277255Y-98294819D02*
X135277255Y-97294819D01*
X135277255Y-97294819D02*
X135467731Y-97294819D01*
X135467731Y-97294819D02*
X135582017Y-97342438D01*
X135582017Y-97342438D02*
X135658207Y-97437676D01*
X135658207Y-97437676D02*
X135696302Y-97532914D01*
X135696302Y-97532914D02*
X135734398Y-97723390D01*
X135734398Y-97723390D02*
X135734398Y-97866247D01*
X135734398Y-97866247D02*
X135696302Y-98056723D01*
X135696302Y-98056723D02*
X135658207Y-98151961D01*
X135658207Y-98151961D02*
X135582017Y-98247200D01*
X135582017Y-98247200D02*
X135467731Y-98294819D01*
X135467731Y-98294819D02*
X135277255Y-98294819D01*
X134058207Y-94802438D02*
X133982017Y-94754819D01*
X133982017Y-94754819D02*
X133867731Y-94754819D01*
X133867731Y-94754819D02*
X133753445Y-94802438D01*
X133753445Y-94802438D02*
X133677255Y-94897676D01*
X133677255Y-94897676D02*
X133639160Y-94992914D01*
X133639160Y-94992914D02*
X133601064Y-95183390D01*
X133601064Y-95183390D02*
X133601064Y-95326247D01*
X133601064Y-95326247D02*
X133639160Y-95516723D01*
X133639160Y-95516723D02*
X133677255Y-95611961D01*
X133677255Y-95611961D02*
X133753445Y-95707200D01*
X133753445Y-95707200D02*
X133867731Y-95754819D01*
X133867731Y-95754819D02*
X133943922Y-95754819D01*
X133943922Y-95754819D02*
X134058207Y-95707200D01*
X134058207Y-95707200D02*
X134096303Y-95659580D01*
X134096303Y-95659580D02*
X134096303Y-95326247D01*
X134096303Y-95326247D02*
X133943922Y-95326247D01*
X134439160Y-95754819D02*
X134439160Y-94754819D01*
X134439160Y-94754819D02*
X134896303Y-95754819D01*
X134896303Y-95754819D02*
X134896303Y-94754819D01*
X135277255Y-95754819D02*
X135277255Y-94754819D01*
X135277255Y-94754819D02*
X135467731Y-94754819D01*
X135467731Y-94754819D02*
X135582017Y-94802438D01*
X135582017Y-94802438D02*
X135658207Y-94897676D01*
X135658207Y-94897676D02*
X135696302Y-94992914D01*
X135696302Y-94992914D02*
X135734398Y-95183390D01*
X135734398Y-95183390D02*
X135734398Y-95326247D01*
X135734398Y-95326247D02*
X135696302Y-95516723D01*
X135696302Y-95516723D02*
X135658207Y-95611961D01*
X135658207Y-95611961D02*
X135582017Y-95707200D01*
X135582017Y-95707200D02*
X135467731Y-95754819D01*
X135467731Y-95754819D02*
X135277255Y-95754819D01*
X150822207Y-79625819D02*
X150365064Y-79625819D01*
X150593636Y-79625819D02*
X150593636Y-78625819D01*
X150593636Y-78625819D02*
X150517445Y-78768676D01*
X150517445Y-78768676D02*
X150441255Y-78863914D01*
X150441255Y-78863914D02*
X150365064Y-78911533D01*
X134274160Y-90674819D02*
X134274160Y-89674819D01*
X134274160Y-89674819D02*
X134464636Y-89674819D01*
X134464636Y-89674819D02*
X134578922Y-89722438D01*
X134578922Y-89722438D02*
X134655112Y-89817676D01*
X134655112Y-89817676D02*
X134693207Y-89912914D01*
X134693207Y-89912914D02*
X134731303Y-90103390D01*
X134731303Y-90103390D02*
X134731303Y-90246247D01*
X134731303Y-90246247D02*
X134693207Y-90436723D01*
X134693207Y-90436723D02*
X134655112Y-90531961D01*
X134655112Y-90531961D02*
X134578922Y-90627200D01*
X134578922Y-90627200D02*
X134464636Y-90674819D01*
X134464636Y-90674819D02*
X134274160Y-90674819D01*
X135493207Y-90674819D02*
X135036064Y-90674819D01*
X135264636Y-90674819D02*
X135264636Y-89674819D01*
X135264636Y-89674819D02*
X135188445Y-89817676D01*
X135188445Y-89817676D02*
X135112255Y-89912914D01*
X135112255Y-89912914D02*
X135036064Y-89960533D01*
D11*
%TO.C,J4*%
X151825000Y-75505000D02*
X151825000Y-76835000D01*
X150495000Y-75505000D02*
X151825000Y-75505000D01*
X149225000Y-75505000D02*
X144085000Y-75505000D01*
X149225000Y-75505000D02*
X149225000Y-78165000D01*
X144085000Y-75505000D02*
X144085000Y-78165000D01*
X149225000Y-78165000D02*
X144085000Y-78165000D01*
%TO.C,G\u002A\u002A\u002A*%
G36*
X150745789Y-91964677D02*
G01*
X150749000Y-91977308D01*
X150742092Y-91993635D01*
X150729461Y-91996846D01*
X150713134Y-91989939D01*
X150709923Y-91977308D01*
X150716831Y-91960981D01*
X150729461Y-91957770D01*
X150745789Y-91964677D01*
G37*
G36*
X150745760Y-95667664D02*
G01*
X150756234Y-95684001D01*
X150757186Y-95688549D01*
X150756975Y-95705082D01*
X150747440Y-95706776D01*
X150744176Y-95705645D01*
X150725307Y-95700176D01*
X150718893Y-95699385D01*
X150711685Y-95691167D01*
X150709923Y-95679167D01*
X150716080Y-95663951D01*
X150730201Y-95660549D01*
X150745760Y-95667664D01*
G37*
G36*
X150725376Y-93544224D02*
G01*
X150743987Y-93549496D01*
X150749799Y-93550154D01*
X150757089Y-93558344D01*
X150758769Y-93569693D01*
X150753045Y-93585014D01*
X150734346Y-93589231D01*
X150716015Y-93585413D01*
X150710109Y-93570093D01*
X150709923Y-93563763D01*
X150712827Y-93545744D01*
X150723200Y-93543471D01*
X150725376Y-93544224D01*
G37*
G36*
X150745760Y-92434048D02*
G01*
X150756234Y-92450386D01*
X150757186Y-92454933D01*
X150756975Y-92471466D01*
X150747440Y-92473160D01*
X150744176Y-92472029D01*
X150725307Y-92466561D01*
X150718893Y-92465770D01*
X150711685Y-92457552D01*
X150709923Y-92445552D01*
X150716080Y-92430336D01*
X150730201Y-92426933D01*
X150745760Y-92434048D01*
G37*
G36*
X150725376Y-92049532D02*
G01*
X150740949Y-92054705D01*
X150744914Y-92055462D01*
X150748181Y-92063722D01*
X150749000Y-92076046D01*
X150744923Y-92090931D01*
X150733547Y-92090699D01*
X150717974Y-92085527D01*
X150714008Y-92084770D01*
X150710741Y-92076509D01*
X150709923Y-92064186D01*
X150714000Y-92049300D01*
X150725376Y-92049532D01*
G37*
G36*
X148892846Y-95562616D02*
G01*
X148892846Y-95816616D01*
X149645077Y-95816616D01*
X150397307Y-95816616D01*
X150397307Y-96065731D01*
X150397307Y-96314846D01*
X149645077Y-96314846D01*
X148892846Y-96314846D01*
X148892846Y-96583707D01*
X148892846Y-96852567D01*
X148699904Y-96849918D01*
X148506961Y-96847270D01*
X148504460Y-96077943D01*
X148501958Y-95308616D01*
X148697402Y-95308616D01*
X148892846Y-95308616D01*
X148892846Y-95562616D01*
G37*
G36*
X150849134Y-95686784D02*
G01*
X150872040Y-95691410D01*
X150908392Y-95698725D01*
X150952481Y-95707579D01*
X150983461Y-95713792D01*
X151029361Y-95723384D01*
X151059445Y-95731055D01*
X151077155Y-95738189D01*
X151085932Y-95746168D01*
X151089208Y-95756314D01*
X151088638Y-95772111D01*
X151076710Y-95774475D01*
X151069670Y-95773087D01*
X151050628Y-95768939D01*
X151017800Y-95761984D01*
X150976535Y-95753351D01*
X150949269Y-95747694D01*
X150896811Y-95736756D01*
X150860515Y-95728658D01*
X150837404Y-95722301D01*
X150824502Y-95716585D01*
X150818834Y-95710412D01*
X150817423Y-95702680D01*
X150817384Y-95698971D01*
X150820285Y-95686745D01*
X150832611Y-95684135D01*
X150849134Y-95686784D01*
G37*
G36*
X150838514Y-93572289D02*
G01*
X150862247Y-93576002D01*
X150899047Y-93583039D01*
X150951758Y-93593557D01*
X150961480Y-93595498D01*
X151014416Y-93606406D01*
X151050947Y-93615007D01*
X151073930Y-93622272D01*
X151086223Y-93629170D01*
X151090683Y-93636673D01*
X151090923Y-93639467D01*
X151085478Y-93654572D01*
X151078711Y-93657656D01*
X151064974Y-93655747D01*
X151036154Y-93650503D01*
X150996268Y-93642691D01*
X150949336Y-93633077D01*
X150941942Y-93631529D01*
X150889994Y-93620221D01*
X150854428Y-93611291D01*
X150832385Y-93603730D01*
X150821004Y-93596527D01*
X150817426Y-93588672D01*
X150817384Y-93587527D01*
X150817283Y-93579519D01*
X150818876Y-93574205D01*
X150825005Y-93571742D01*
X150838514Y-93572289D01*
G37*
G36*
X150836128Y-92451384D02*
G01*
X150857677Y-92454648D01*
X150891254Y-92461117D01*
X150939500Y-92471019D01*
X150983461Y-92480123D01*
X151029329Y-92489995D01*
X151059402Y-92497853D01*
X151077122Y-92505108D01*
X151085930Y-92513170D01*
X151089267Y-92523454D01*
X151089279Y-92523537D01*
X151088669Y-92539584D01*
X151077501Y-92541315D01*
X151074626Y-92540552D01*
X151057772Y-92536433D01*
X151026824Y-92529532D01*
X150986834Y-92520960D01*
X150959038Y-92515153D01*
X150915347Y-92506073D01*
X150876905Y-92498004D01*
X150849016Y-92492064D01*
X150839365Y-92489943D01*
X150821043Y-92478286D01*
X150817384Y-92465828D01*
X150817235Y-92458546D01*
X150818548Y-92453560D01*
X150823965Y-92451097D01*
X150836128Y-92451384D01*
G37*
G36*
X150840793Y-92792204D02*
G01*
X150846692Y-92807939D01*
X150855871Y-92842465D01*
X150882251Y-92870758D01*
X150924095Y-92891395D01*
X150959038Y-92900076D01*
X151012606Y-92909859D01*
X151049686Y-92917894D01*
X151073137Y-92925162D01*
X151085819Y-92932642D01*
X151090589Y-92941314D01*
X151090923Y-92945271D01*
X151087743Y-92960486D01*
X151083596Y-92963535D01*
X151071805Y-92961422D01*
X151044695Y-92955966D01*
X151006048Y-92947944D01*
X150959643Y-92938133D01*
X150949269Y-92935919D01*
X150894445Y-92923616D01*
X150856471Y-92913553D01*
X150832901Y-92904913D01*
X150821287Y-92896878D01*
X150819110Y-92892423D01*
X150823082Y-92879081D01*
X150837075Y-92876077D01*
X150849832Y-92875230D01*
X150851328Y-92869849D01*
X150840973Y-92855671D01*
X150832907Y-92846020D01*
X150812239Y-92815855D01*
X150808445Y-92794185D01*
X150813455Y-92785571D01*
X150827059Y-92782685D01*
X150840793Y-92792204D01*
G37*
G36*
X150397307Y-92001731D02*
G01*
X150397307Y-92250846D01*
X150021192Y-92250846D01*
X149645077Y-92250846D01*
X149645077Y-92568346D01*
X149645077Y-92885846D01*
X149770492Y-92885846D01*
X149816771Y-92886116D01*
X149877961Y-92886872D01*
X149949442Y-92888034D01*
X150026594Y-92889525D01*
X150104799Y-92891263D01*
X150146607Y-92892297D01*
X150397307Y-92898748D01*
X150397308Y-93143855D01*
X150397309Y-93388962D01*
X149452135Y-93384077D01*
X148506961Y-93379193D01*
X148504351Y-93132520D01*
X148501741Y-92885846D01*
X148873140Y-92885846D01*
X149244538Y-92885846D01*
X149244538Y-92569881D01*
X149244538Y-92253915D01*
X149081786Y-92247496D01*
X149018103Y-92245426D01*
X148941592Y-92243633D01*
X148858962Y-92242235D01*
X148776921Y-92241346D01*
X148710555Y-92241077D01*
X148502077Y-92241077D01*
X148502077Y-91996846D01*
X148502077Y-91752616D01*
X149449692Y-91752616D01*
X150397307Y-91752616D01*
X150397307Y-92001731D01*
G37*
G36*
X150834124Y-95188968D02*
G01*
X150836923Y-95208039D01*
X150844170Y-95245371D01*
X150862929Y-95285589D01*
X150888728Y-95320881D01*
X150913267Y-95341411D01*
X150952521Y-95356718D01*
X150992672Y-95360497D01*
X151027232Y-95352641D01*
X151041257Y-95343549D01*
X151056697Y-95317950D01*
X151061666Y-95283553D01*
X151055412Y-95248514D01*
X151050941Y-95238540D01*
X151045723Y-95216803D01*
X151050036Y-95208826D01*
X151061080Y-95207373D01*
X151072381Y-95220768D01*
X151082436Y-95244403D01*
X151089742Y-95273667D01*
X151092796Y-95303950D01*
X151090095Y-95330643D01*
X151089942Y-95331221D01*
X151076165Y-95364473D01*
X151053381Y-95385369D01*
X151023436Y-95397424D01*
X150976456Y-95401980D01*
X150927734Y-95390638D01*
X150882396Y-95365792D01*
X150845569Y-95329835D01*
X150831656Y-95307877D01*
X150822036Y-95281151D01*
X150816274Y-95249281D01*
X150814717Y-95218393D01*
X150817706Y-95194613D01*
X150824711Y-95184299D01*
X150834124Y-95188968D01*
G37*
G36*
X150829234Y-96428576D02*
G01*
X150834787Y-96446840D01*
X150841075Y-96480923D01*
X150858367Y-96533010D01*
X150889581Y-96573716D01*
X150932092Y-96600655D01*
X150983276Y-96611442D01*
X150984682Y-96611485D01*
X151023234Y-96605077D01*
X151049339Y-96584662D01*
X151061125Y-96551924D01*
X151061615Y-96542267D01*
X151058483Y-96512895D01*
X151050953Y-96489024D01*
X151050941Y-96489002D01*
X151045723Y-96467264D01*
X151050036Y-96459287D01*
X151061544Y-96457055D01*
X151072726Y-96469887D01*
X151082313Y-96493334D01*
X151089034Y-96522944D01*
X151091620Y-96554267D01*
X151088803Y-96582852D01*
X151087073Y-96589150D01*
X151067381Y-96622739D01*
X151036513Y-96643774D01*
X150998044Y-96652512D01*
X150955550Y-96649214D01*
X150912604Y-96634137D01*
X150872782Y-96607541D01*
X150840746Y-96571315D01*
X150825142Y-96539679D01*
X150814678Y-96502219D01*
X150810648Y-96466123D01*
X150814346Y-96438576D01*
X150816153Y-96434679D01*
X150823429Y-96425277D01*
X150829234Y-96428576D01*
G37*
G36*
X150834505Y-89553346D02*
G01*
X150844490Y-89568019D01*
X150846692Y-89580972D01*
X150854069Y-89603356D01*
X150872302Y-89628340D01*
X150895543Y-89649734D01*
X150917946Y-89661345D01*
X150923213Y-89662000D01*
X150939926Y-89663974D01*
X150969834Y-89669200D01*
X151007069Y-89676634D01*
X151014988Y-89678318D01*
X151054282Y-89687627D01*
X151077699Y-89695798D01*
X151088710Y-89704397D01*
X151090923Y-89712510D01*
X151085442Y-89727136D01*
X151078711Y-89729788D01*
X151064942Y-89727589D01*
X151036154Y-89722016D01*
X150996413Y-89713884D01*
X150949784Y-89704008D01*
X150944508Y-89702872D01*
X150892540Y-89691193D01*
X150856904Y-89681828D01*
X150834682Y-89673739D01*
X150822959Y-89665884D01*
X150818965Y-89658111D01*
X150819964Y-89644840D01*
X150833623Y-89644458D01*
X150835937Y-89645035D01*
X150852032Y-89645868D01*
X150856461Y-89641547D01*
X150849034Y-89632909D01*
X150846943Y-89632693D01*
X150835569Y-89624472D01*
X150823278Y-89604909D01*
X150813745Y-89581654D01*
X150810641Y-89562357D01*
X150811423Y-89558706D01*
X150821575Y-89549037D01*
X150834505Y-89553346D01*
G37*
G36*
X150832766Y-93267360D02*
G01*
X150856365Y-93278611D01*
X150890667Y-93296774D01*
X150932645Y-93320277D01*
X150957218Y-93334503D01*
X151015484Y-93369860D01*
X151056665Y-93397873D01*
X151081493Y-93419215D01*
X151090701Y-93434562D01*
X151085022Y-93444587D01*
X151079433Y-93447037D01*
X151064471Y-93450910D01*
X151035691Y-93457549D01*
X150997630Y-93465985D01*
X150954826Y-93475248D01*
X150911815Y-93484368D01*
X150873136Y-93492377D01*
X150843324Y-93498304D01*
X150826919Y-93501179D01*
X150825451Y-93501308D01*
X150818746Y-93493168D01*
X150817384Y-93483043D01*
X150820169Y-93474286D01*
X150830605Y-93466735D01*
X150851818Y-93459194D01*
X150886934Y-93450466D01*
X150922404Y-93442811D01*
X150965026Y-93433726D01*
X150999894Y-93425973D01*
X151022993Y-93420465D01*
X151030363Y-93418245D01*
X151023489Y-93412820D01*
X151002599Y-93399857D01*
X150970806Y-93381219D01*
X150931224Y-93358765D01*
X150925344Y-93355482D01*
X150876009Y-93327029D01*
X150842744Y-93305242D01*
X150823867Y-93288630D01*
X150817693Y-93275698D01*
X150822540Y-93264953D01*
X150822891Y-93264596D01*
X150832766Y-93267360D01*
G37*
G36*
X150838298Y-95452229D02*
G01*
X150840406Y-95477457D01*
X150839599Y-95487019D01*
X150841304Y-95525809D01*
X150853971Y-95553500D01*
X150874128Y-95568422D01*
X150898299Y-95568905D01*
X150923010Y-95553279D01*
X150937498Y-95534066D01*
X150960678Y-95500281D01*
X150983066Y-95481746D01*
X151009382Y-95474963D01*
X151017642Y-95474693D01*
X151052113Y-95482939D01*
X151075939Y-95507018D01*
X151088413Y-95545938D01*
X151090151Y-95576145D01*
X151088826Y-95607195D01*
X151086307Y-95630750D01*
X151084636Y-95637778D01*
X151073060Y-95645440D01*
X151066841Y-95644434D01*
X151058997Y-95635962D01*
X151060302Y-95616841D01*
X151063074Y-95605808D01*
X151066406Y-95569070D01*
X151056527Y-95538885D01*
X151035531Y-95519745D01*
X151021039Y-95515661D01*
X151002970Y-95517033D01*
X150986916Y-95528465D01*
X150967716Y-95553684D01*
X150967099Y-95554602D01*
X150935391Y-95591104D01*
X150902353Y-95608352D01*
X150868249Y-95606222D01*
X150861232Y-95603418D01*
X150835879Y-95582099D01*
X150818330Y-95548171D01*
X150811085Y-95507832D01*
X150812709Y-95483222D01*
X150820985Y-95454623D01*
X150830670Y-95444455D01*
X150838298Y-95452229D01*
G37*
G36*
X150831297Y-92579183D02*
G01*
X150839491Y-92590651D01*
X150840272Y-92617417D01*
X150839402Y-92626381D01*
X150838380Y-92657021D01*
X150845427Y-92677492D01*
X150855319Y-92689320D01*
X150876030Y-92705430D01*
X150894594Y-92707162D01*
X150914454Y-92693414D01*
X150939048Y-92663080D01*
X150939636Y-92662262D01*
X150961481Y-92635564D01*
X150982415Y-92616011D01*
X150994399Y-92609172D01*
X151027711Y-92609746D01*
X151059367Y-92626090D01*
X151075283Y-92643173D01*
X151083841Y-92664268D01*
X151089184Y-92694365D01*
X151091010Y-92726795D01*
X151089019Y-92754889D01*
X151082912Y-92771979D01*
X151081154Y-92773500D01*
X151065650Y-92776455D01*
X151058451Y-92764840D01*
X151062004Y-92743169D01*
X151066971Y-92707529D01*
X151056557Y-92674959D01*
X151039450Y-92656506D01*
X151017111Y-92648448D01*
X150994731Y-92657029D01*
X150970511Y-92683232D01*
X150958889Y-92700467D01*
X150930438Y-92732321D01*
X150898705Y-92746693D01*
X150867129Y-92743753D01*
X150839150Y-92723671D01*
X150820910Y-92693602D01*
X150813304Y-92665799D01*
X150810755Y-92635155D01*
X150812786Y-92606914D01*
X150818922Y-92586320D01*
X150828686Y-92578618D01*
X150831297Y-92579183D01*
G37*
G36*
X150947675Y-93110539D02*
G01*
X150949269Y-93203346D01*
X150986131Y-93202212D01*
X151016078Y-93196851D01*
X151040332Y-93185246D01*
X151042305Y-93183602D01*
X151056864Y-93158912D01*
X151061483Y-93125522D01*
X151055776Y-93091773D01*
X151047306Y-93074919D01*
X151038554Y-93054784D01*
X151045057Y-93043548D01*
X151053223Y-93042154D01*
X151064986Y-93050894D01*
X151076612Y-93073209D01*
X151085910Y-93103245D01*
X151090690Y-93135148D01*
X151090923Y-93142914D01*
X151087290Y-93177107D01*
X151074134Y-93202039D01*
X151066198Y-93210753D01*
X151029912Y-93234319D01*
X150986538Y-93243134D01*
X150940295Y-93238383D01*
X150909855Y-93226767D01*
X150895400Y-93221251D01*
X150856073Y-93192921D01*
X150826530Y-93154577D01*
X150820387Y-93141733D01*
X150811878Y-93104720D01*
X150838779Y-93104720D01*
X150847259Y-93134882D01*
X150867264Y-93160350D01*
X150892951Y-93181867D01*
X150909855Y-93188388D01*
X150919666Y-93178737D01*
X150924071Y-93151740D01*
X150924846Y-93120308D01*
X150924531Y-93084596D01*
X150922502Y-93064159D01*
X150917132Y-93054735D01*
X150906794Y-93052061D01*
X150898750Y-93051923D01*
X150865712Y-93059153D01*
X150845326Y-93078114D01*
X150838779Y-93104720D01*
X150811878Y-93104720D01*
X150810636Y-93099316D01*
X150818379Y-93064030D01*
X150842275Y-93037802D01*
X150880986Y-93022561D01*
X150905201Y-93019675D01*
X150946081Y-93017731D01*
X150947675Y-93110539D01*
G37*
G36*
X150740374Y-96903139D02*
G01*
X150746270Y-96912534D01*
X150748640Y-96933654D01*
X150749000Y-96959616D01*
X150749618Y-96990536D01*
X150751226Y-97011775D01*
X150753084Y-97018231D01*
X150763517Y-97020133D01*
X150789872Y-97025403D01*
X150828948Y-97033390D01*
X150877548Y-97043439D01*
X150920650Y-97052423D01*
X150974457Y-97063638D01*
X151021213Y-97073307D01*
X151057736Y-97080780D01*
X151080844Y-97085405D01*
X151087527Y-97086616D01*
X151090291Y-97094838D01*
X151090923Y-97106154D01*
X151087464Y-97122038D01*
X151082678Y-97125693D01*
X151070058Y-97123807D01*
X151042385Y-97118698D01*
X151003721Y-97111193D01*
X150958127Y-97102116D01*
X150909664Y-97092292D01*
X150862395Y-97082546D01*
X150820382Y-97073703D01*
X150787684Y-97066589D01*
X150768365Y-97062028D01*
X150766096Y-97061382D01*
X150756616Y-97060678D01*
X150751441Y-97068774D01*
X150749326Y-97089589D01*
X150749000Y-97115265D01*
X150748302Y-97148226D01*
X150745233Y-97166116D01*
X150738326Y-97173384D01*
X150729461Y-97174539D01*
X150721730Y-97173524D01*
X150716360Y-97168479D01*
X150712924Y-97156400D01*
X150710992Y-97134284D01*
X150710135Y-97099131D01*
X150709925Y-97047935D01*
X150709923Y-97037770D01*
X150710068Y-96983648D01*
X150710788Y-96946061D01*
X150712514Y-96922008D01*
X150715673Y-96908484D01*
X150720695Y-96902488D01*
X150728009Y-96901016D01*
X150729461Y-96901000D01*
X150740374Y-96903139D01*
G37*
G36*
X150949269Y-96805736D02*
G01*
X150949269Y-96896116D01*
X150979097Y-96899034D01*
X151015579Y-96894624D01*
X151042426Y-96875891D01*
X151057624Y-96846503D01*
X151059158Y-96810127D01*
X151047351Y-96774754D01*
X151038553Y-96749511D01*
X151044483Y-96736618D01*
X151053223Y-96734923D01*
X151065067Y-96743689D01*
X151076668Y-96766151D01*
X151085909Y-96796558D01*
X151090677Y-96829157D01*
X151090923Y-96837459D01*
X151087611Y-96872103D01*
X151075744Y-96896518D01*
X151067591Y-96905682D01*
X151032034Y-96928482D01*
X150989068Y-96936826D01*
X150942943Y-96931936D01*
X150909440Y-96919364D01*
X150897907Y-96915036D01*
X150858208Y-96887350D01*
X150828096Y-96850099D01*
X150820387Y-96834502D01*
X150812259Y-96799729D01*
X150836923Y-96799729D01*
X150843934Y-96822415D01*
X150861263Y-96847676D01*
X150883346Y-96869243D01*
X150904625Y-96880849D01*
X150909440Y-96881462D01*
X150917730Y-96877977D01*
X150922479Y-96864998D01*
X150924542Y-96838742D01*
X150924846Y-96813077D01*
X150924421Y-96777299D01*
X150922227Y-96756817D01*
X150916885Y-96747390D01*
X150907016Y-96744780D01*
X150902596Y-96744693D01*
X150871980Y-96752045D01*
X150848174Y-96770784D01*
X150837116Y-96795935D01*
X150836923Y-96799729D01*
X150812259Y-96799729D01*
X150810444Y-96791963D01*
X150817829Y-96756959D01*
X150841137Y-96731467D01*
X150878964Y-96717462D01*
X150905039Y-96715371D01*
X150949269Y-96715357D01*
X150949269Y-96805736D01*
G37*
G36*
X150947822Y-94693154D02*
G01*
X150949269Y-94785962D01*
X150979097Y-94788880D01*
X151015275Y-94784358D01*
X151042182Y-94765456D01*
X151057770Y-94735943D01*
X151059997Y-94699593D01*
X151047839Y-94662095D01*
X151039218Y-94637821D01*
X151045362Y-94626065D01*
X151053223Y-94624770D01*
X151065067Y-94633535D01*
X151076668Y-94655997D01*
X151085909Y-94686404D01*
X151090677Y-94719003D01*
X151090923Y-94727305D01*
X151087491Y-94762372D01*
X151075396Y-94786908D01*
X151068385Y-94794734D01*
X151032730Y-94817626D01*
X150989626Y-94826099D01*
X150943346Y-94821364D01*
X150909440Y-94808811D01*
X150898161Y-94804635D01*
X150858344Y-94777124D01*
X150828167Y-94740043D01*
X150820387Y-94724348D01*
X150812448Y-94689575D01*
X150836923Y-94689575D01*
X150843934Y-94712262D01*
X150861263Y-94737522D01*
X150883346Y-94759089D01*
X150904625Y-94770695D01*
X150909440Y-94771308D01*
X150917730Y-94767823D01*
X150922479Y-94754845D01*
X150924542Y-94728589D01*
X150924846Y-94702923D01*
X150924421Y-94667145D01*
X150922227Y-94646663D01*
X150916885Y-94637236D01*
X150907016Y-94634627D01*
X150902596Y-94634539D01*
X150871980Y-94641891D01*
X150848174Y-94660630D01*
X150837116Y-94685781D01*
X150836923Y-94689575D01*
X150812448Y-94689575D01*
X150810711Y-94681965D01*
X150818516Y-94646579D01*
X150842382Y-94620220D01*
X150880895Y-94604919D01*
X150905752Y-94602026D01*
X150946375Y-94600346D01*
X150947822Y-94693154D01*
G37*
G36*
X149038084Y-89916147D02*
G01*
X149156142Y-89916565D01*
X149284678Y-89917224D01*
X149419161Y-89918092D01*
X149555061Y-89919140D01*
X149687850Y-89920336D01*
X149812998Y-89921648D01*
X149882815Y-89922483D01*
X150397307Y-89928965D01*
X150397312Y-90174040D01*
X150397317Y-90419116D01*
X150021063Y-90416341D01*
X149644809Y-90413566D01*
X149647385Y-90733831D01*
X149648197Y-90822522D01*
X149649120Y-90893558D01*
X149650257Y-90948824D01*
X149651708Y-90990203D01*
X149653574Y-91019579D01*
X149655955Y-91038836D01*
X149658954Y-91049857D01*
X149662672Y-91054528D01*
X149664615Y-91055060D01*
X149677453Y-91055319D01*
X149707553Y-91055634D01*
X149752639Y-91055988D01*
X149810433Y-91056368D01*
X149878660Y-91056758D01*
X149955044Y-91057143D01*
X150037307Y-91057508D01*
X150038288Y-91057512D01*
X150397307Y-91059000D01*
X150397307Y-91309703D01*
X150397307Y-91560406D01*
X150014707Y-91553934D01*
X149928039Y-91552656D01*
X149825517Y-91551462D01*
X149710823Y-91550377D01*
X149587642Y-91549426D01*
X149459658Y-91548634D01*
X149330553Y-91548026D01*
X149204013Y-91547628D01*
X149083720Y-91547465D01*
X149067092Y-91547462D01*
X148502077Y-91547462D01*
X148502077Y-91298346D01*
X148502077Y-91049231D01*
X148873307Y-91049231D01*
X149244538Y-91049231D01*
X149244538Y-90731849D01*
X149244538Y-90414466D01*
X148875750Y-90411906D01*
X148506961Y-90409346D01*
X148504351Y-90162673D01*
X148501741Y-89916000D01*
X148935032Y-89916000D01*
X149038084Y-89916147D01*
G37*
G36*
X150920918Y-95840402D02*
G01*
X150944384Y-95845263D01*
X150973798Y-95852362D01*
X151011782Y-95860716D01*
X151034750Y-95865439D01*
X151067125Y-95873050D01*
X151084309Y-95880981D01*
X151090542Y-95891585D01*
X151090923Y-95896601D01*
X151086791Y-95911157D01*
X151071087Y-95912297D01*
X151068942Y-95911861D01*
X151000684Y-95897439D01*
X150948900Y-95887231D01*
X150911052Y-95880947D01*
X150884602Y-95878297D01*
X150867012Y-95878990D01*
X150855744Y-95882735D01*
X150850425Y-95886850D01*
X150841152Y-95898822D01*
X150841056Y-95912178D01*
X150850249Y-95934547D01*
X150851142Y-95936436D01*
X150868994Y-95967620D01*
X150890909Y-95990268D01*
X150921166Y-96007064D01*
X150964047Y-96020691D01*
X150998086Y-96028564D01*
X151043250Y-96039204D01*
X151071698Y-96048635D01*
X151086122Y-96057900D01*
X151089168Y-96063835D01*
X151085130Y-96077564D01*
X151072707Y-96080385D01*
X151053077Y-96078295D01*
X151021802Y-96072859D01*
X150991394Y-96066510D01*
X150946891Y-96056740D01*
X150899380Y-96046676D01*
X150873557Y-96041394D01*
X150840902Y-96033590D01*
X150823613Y-96025400D01*
X150817603Y-96014620D01*
X150817384Y-96011122D01*
X150820581Y-95998143D01*
X150833847Y-95996458D01*
X150844250Y-95998623D01*
X150862494Y-96002297D01*
X150864199Y-95998122D01*
X150854391Y-95986240D01*
X150831281Y-95952218D01*
X150817445Y-95915606D01*
X150813698Y-95881346D01*
X150820853Y-95854381D01*
X150830913Y-95843631D01*
X150851568Y-95837866D01*
X150883966Y-95836825D01*
X150920918Y-95840402D01*
G37*
G36*
X150732863Y-94001863D02*
G01*
X150765256Y-94008133D01*
X150807626Y-94017299D01*
X150855563Y-94028310D01*
X150904655Y-94040113D01*
X150950489Y-94051658D01*
X150988655Y-94061894D01*
X151014741Y-94069768D01*
X151022720Y-94072902D01*
X151059628Y-94102358D01*
X151082264Y-94144834D01*
X151090271Y-94199628D01*
X151090267Y-94204693D01*
X151088386Y-94239161D01*
X151084216Y-94268449D01*
X151081060Y-94279835D01*
X151059616Y-94308407D01*
X151024695Y-94327043D01*
X150980849Y-94333332D01*
X150980051Y-94333318D01*
X150947249Y-94330406D01*
X150898483Y-94322570D01*
X150832874Y-94309649D01*
X150749543Y-94291479D01*
X150731904Y-94287481D01*
X150713537Y-94275747D01*
X150709923Y-94263122D01*
X150709867Y-94254125D01*
X150711695Y-94248318D01*
X150718398Y-94245821D01*
X150732965Y-94246751D01*
X150758390Y-94251226D01*
X150797662Y-94259366D01*
X150839401Y-94268243D01*
X150887669Y-94277919D01*
X150931971Y-94285776D01*
X150967112Y-94290955D01*
X150986679Y-94292616D01*
X151022460Y-94283934D01*
X151048862Y-94260129D01*
X151062843Y-94224559D01*
X151064279Y-94206934D01*
X151061950Y-94174493D01*
X151053384Y-94148837D01*
X151036218Y-94128341D01*
X151008087Y-94111379D01*
X150966627Y-94096326D01*
X150909474Y-94081555D01*
X150868945Y-94072635D01*
X150821910Y-94062642D01*
X150780186Y-94053726D01*
X150748461Y-94046890D01*
X150731904Y-94043251D01*
X150713537Y-94031516D01*
X150709923Y-94018891D01*
X150712017Y-94003093D01*
X150714860Y-93999539D01*
X150732863Y-94001863D01*
G37*
G36*
X150846986Y-89782667D02*
G01*
X150875361Y-89787698D01*
X150917754Y-89796579D01*
X150963818Y-89806608D01*
X151015858Y-89818454D01*
X151051552Y-89827951D01*
X151073799Y-89836139D01*
X151085496Y-89844055D01*
X151089366Y-89851629D01*
X151089135Y-89863730D01*
X151078476Y-89866421D01*
X151061994Y-89863811D01*
X151031086Y-89857629D01*
X151061004Y-89893925D01*
X151081337Y-89927515D01*
X151091012Y-89962857D01*
X151089127Y-89994108D01*
X151079200Y-90011739D01*
X151069786Y-90018627D01*
X151056455Y-90022088D01*
X151035950Y-90021930D01*
X151005019Y-90017964D01*
X150960408Y-90009999D01*
X150922404Y-90002561D01*
X150875390Y-89992720D01*
X150844535Y-89984779D01*
X150826701Y-89977570D01*
X150818750Y-89969927D01*
X150817384Y-89963477D01*
X150817584Y-89954460D01*
X150820295Y-89948922D01*
X150828686Y-89946920D01*
X150845924Y-89948515D01*
X150875178Y-89953764D01*
X150919616Y-89962726D01*
X150933904Y-89965642D01*
X150976798Y-89973635D01*
X151013361Y-89979054D01*
X151038871Y-89981276D01*
X151047611Y-89980603D01*
X151060231Y-89966952D01*
X151059802Y-89943569D01*
X151047192Y-89914432D01*
X151027372Y-89887923D01*
X151009179Y-89869337D01*
X150991339Y-89856601D01*
X150968470Y-89847293D01*
X150935193Y-89838991D01*
X150905257Y-89832952D01*
X150862848Y-89824099D01*
X150836372Y-89816634D01*
X150822417Y-89809183D01*
X150817573Y-89800373D01*
X150817384Y-89797558D01*
X150817827Y-89788931D01*
X150821033Y-89783457D01*
X150829814Y-89781311D01*
X150846986Y-89782667D01*
G37*
G36*
X150842980Y-92229117D02*
G01*
X150846682Y-92253137D01*
X150846692Y-92255038D01*
X150847615Y-92273941D01*
X150853436Y-92285115D01*
X150868733Y-92292213D01*
X150898081Y-92298885D01*
X150902865Y-92299851D01*
X150942137Y-92307870D01*
X150980584Y-92315895D01*
X150998115Y-92319641D01*
X151033272Y-92322356D01*
X151053873Y-92312210D01*
X151059734Y-92289346D01*
X151057198Y-92273654D01*
X151051682Y-92249951D01*
X151051463Y-92238976D01*
X151056851Y-92234569D01*
X151059199Y-92233742D01*
X151071163Y-92238264D01*
X151080841Y-92256448D01*
X151087198Y-92282456D01*
X151089199Y-92310453D01*
X151085811Y-92334600D01*
X151079200Y-92346585D01*
X151058548Y-92355359D01*
X151023280Y-92357542D01*
X150977146Y-92353203D01*
X150929730Y-92343850D01*
X150889996Y-92334625D01*
X150865515Y-92330867D01*
X150852597Y-92333257D01*
X150847552Y-92342471D01*
X150846692Y-92359122D01*
X150843001Y-92380386D01*
X150834565Y-92385356D01*
X150825343Y-92375233D01*
X150819292Y-92351216D01*
X150819250Y-92350802D01*
X150815965Y-92333017D01*
X150807253Y-92322312D01*
X150788113Y-92314997D01*
X150763077Y-92309342D01*
X150731666Y-92301492D01*
X150715422Y-92293061D01*
X150710065Y-92281561D01*
X150709923Y-92278403D01*
X150713083Y-92264629D01*
X150726294Y-92262920D01*
X150735486Y-92264913D01*
X150774861Y-92274480D01*
X150799028Y-92278587D01*
X150811697Y-92276653D01*
X150816579Y-92268096D01*
X150817384Y-92252333D01*
X150817384Y-92252068D01*
X150821402Y-92228274D01*
X150832038Y-92221539D01*
X150842980Y-92229117D01*
G37*
G36*
X150894046Y-93723660D02*
G01*
X150943585Y-93731707D01*
X150967442Y-93736388D01*
X151019766Y-93747344D01*
X151055516Y-93756101D01*
X151077372Y-93763788D01*
X151088012Y-93771534D01*
X151090117Y-93780468D01*
X151088238Y-93787289D01*
X151083066Y-93792856D01*
X151071015Y-93794690D01*
X151048821Y-93792546D01*
X151013221Y-93786178D01*
X150978165Y-93778988D01*
X150920391Y-93767925D01*
X150879658Y-93763364D01*
X150854335Y-93766041D01*
X150842795Y-93776691D01*
X150843409Y-93796052D01*
X150854549Y-93824859D01*
X150858515Y-93833072D01*
X150873330Y-93859164D01*
X150890348Y-93878005D01*
X150913695Y-93891934D01*
X150947497Y-93903290D01*
X150995879Y-93914413D01*
X151005442Y-93916366D01*
X151046894Y-93925335D01*
X151072566Y-93932827D01*
X151085987Y-93940355D01*
X151090685Y-93949430D01*
X151090923Y-93952997D01*
X151086835Y-93966931D01*
X151071284Y-93967570D01*
X151068942Y-93967032D01*
X151050910Y-93963125D01*
X151018411Y-93956503D01*
X150976168Y-93948113D01*
X150932173Y-93939537D01*
X150882877Y-93929623D01*
X150849811Y-93921732D01*
X150829915Y-93914778D01*
X150820128Y-93907674D01*
X150817391Y-93899334D01*
X150817384Y-93898775D01*
X150821078Y-93885827D01*
X150835665Y-93884931D01*
X150841807Y-93886320D01*
X150861330Y-93887833D01*
X150864626Y-93879407D01*
X150851454Y-93862339D01*
X150847060Y-93858218D01*
X150828119Y-93832667D01*
X150814954Y-93799607D01*
X150810532Y-93767854D01*
X150812454Y-93755451D01*
X150821298Y-93737177D01*
X150835868Y-93726030D01*
X150859129Y-93721646D01*
X150894046Y-93723660D01*
G37*
G36*
X150842876Y-91720953D02*
G01*
X150846665Y-91744617D01*
X150846692Y-91747731D01*
X150847422Y-91770348D01*
X150849215Y-91781634D01*
X150849592Y-91781923D01*
X150859758Y-91783867D01*
X150884647Y-91789085D01*
X150919901Y-91796655D01*
X150941750Y-91801404D01*
X150982543Y-91809364D01*
X151017186Y-91814398D01*
X151040530Y-91815835D01*
X151046312Y-91815013D01*
X151059023Y-91800927D01*
X151060350Y-91776810D01*
X151052025Y-91752950D01*
X151047924Y-91736709D01*
X151055694Y-91729942D01*
X151069261Y-91733213D01*
X151080389Y-91750200D01*
X151087845Y-91775119D01*
X151090394Y-91802185D01*
X151086803Y-91825614D01*
X151078711Y-91837826D01*
X151062026Y-91847954D01*
X151042360Y-91852568D01*
X151015240Y-91851741D01*
X150976195Y-91845547D01*
X150948491Y-91839979D01*
X150909253Y-91831899D01*
X150877431Y-91825567D01*
X150857750Y-91821914D01*
X150854019Y-91821385D01*
X150848932Y-91829612D01*
X150846697Y-91850043D01*
X150846692Y-91851122D01*
X150842969Y-91872376D01*
X150834479Y-91877336D01*
X150825237Y-91867161D01*
X150819281Y-91843214D01*
X150814606Y-91822645D01*
X150801914Y-91812145D01*
X150780204Y-91806811D01*
X150743423Y-91799459D01*
X150722092Y-91792283D01*
X150712247Y-91783252D01*
X150709923Y-91770838D01*
X150714627Y-91756417D01*
X150727019Y-91756321D01*
X150747908Y-91761355D01*
X150776633Y-91767094D01*
X150780750Y-91767836D01*
X150804574Y-91771103D01*
X150814882Y-91766935D01*
X150817334Y-91751638D01*
X150817384Y-91743934D01*
X150821439Y-91720197D01*
X150832038Y-91713539D01*
X150842876Y-91720953D01*
G37*
G36*
X150953743Y-90094183D02*
G01*
X150994675Y-90111779D01*
X151032668Y-90141054D01*
X151032955Y-90141340D01*
X151065570Y-90183747D01*
X151084346Y-90233707D01*
X151090834Y-90295487D01*
X151090868Y-90300582D01*
X151090140Y-90328853D01*
X151086333Y-90342130D01*
X151077143Y-90344938D01*
X151068942Y-90343658D01*
X151061615Y-90342152D01*
X150964331Y-90322163D01*
X150877941Y-90303864D01*
X150808760Y-90288519D01*
X150755778Y-90275883D01*
X150717981Y-90265713D01*
X150694359Y-90257766D01*
X150683898Y-90251798D01*
X150683297Y-90250822D01*
X150681017Y-90238687D01*
X150687753Y-90232619D01*
X150706300Y-90232325D01*
X150739448Y-90237514D01*
X150763941Y-90242398D01*
X150808156Y-90251326D01*
X150835910Y-90256005D01*
X150849829Y-90256364D01*
X150852540Y-90252329D01*
X150846669Y-90243828D01*
X150843444Y-90240193D01*
X150828421Y-90217798D01*
X150817123Y-90192990D01*
X150814511Y-90175174D01*
X150842409Y-90175174D01*
X150846330Y-90202010D01*
X150867494Y-90232934D01*
X150876119Y-90242210D01*
X150896726Y-90259002D01*
X150924282Y-90271981D01*
X150964090Y-90283407D01*
X150982590Y-90287608D01*
X151061615Y-90304758D01*
X151061615Y-90268131D01*
X151054365Y-90229095D01*
X151039601Y-90198839D01*
X151009596Y-90165834D01*
X150972813Y-90142227D01*
X150933665Y-90129193D01*
X150896566Y-90127908D01*
X150865930Y-90139548D01*
X150855111Y-90149703D01*
X150842409Y-90175174D01*
X150814511Y-90175174D01*
X150811677Y-90155838D01*
X150821581Y-90125987D01*
X150843789Y-90104166D01*
X150875251Y-90091106D01*
X150912918Y-90087535D01*
X150953743Y-90094183D01*
G37*
G36*
X150899790Y-94897407D02*
G01*
X150941335Y-94904026D01*
X150978577Y-94911157D01*
X151025627Y-94921189D01*
X151056819Y-94929099D01*
X151075522Y-94936244D01*
X151085104Y-94943980D01*
X151088933Y-94953667D01*
X151089279Y-94955780D01*
X151088715Y-94972027D01*
X151077729Y-94973969D01*
X151074626Y-94973165D01*
X151064120Y-94970455D01*
X151046861Y-94966536D01*
X151020188Y-94960849D01*
X150981438Y-94952833D01*
X150927951Y-94941928D01*
X150883155Y-94932849D01*
X150859839Y-94935675D01*
X150846525Y-94952394D01*
X150845998Y-94978740D01*
X150848199Y-94986356D01*
X150864897Y-95021850D01*
X150888840Y-95048110D01*
X150923581Y-95067515D01*
X150972673Y-95082445D01*
X151000557Y-95088368D01*
X151043647Y-95097309D01*
X151070772Y-95104788D01*
X151085304Y-95112142D01*
X151090617Y-95120709D01*
X151090923Y-95124212D01*
X151087666Y-95139419D01*
X151083596Y-95142514D01*
X151070427Y-95140547D01*
X151042065Y-95135181D01*
X151002063Y-95127171D01*
X150953975Y-95117271D01*
X150901354Y-95106236D01*
X150847755Y-95094821D01*
X150796732Y-95083782D01*
X150751837Y-95073872D01*
X150716626Y-95065847D01*
X150694650Y-95060463D01*
X150689117Y-95058717D01*
X150681175Y-95046167D01*
X150683104Y-95031748D01*
X150692827Y-95025651D01*
X150708167Y-95027823D01*
X150736268Y-95033158D01*
X150768538Y-95039962D01*
X150813984Y-95049548D01*
X150842624Y-95054022D01*
X150856620Y-95052969D01*
X150858131Y-95045973D01*
X150849319Y-95032619D01*
X150843503Y-95025542D01*
X150821072Y-94990056D01*
X150811545Y-94955039D01*
X150814746Y-94924462D01*
X150830495Y-94902294D01*
X150849416Y-94893789D01*
X150867519Y-94893775D01*
X150899790Y-94897407D01*
G37*
G36*
X150899790Y-96147868D02*
G01*
X150941335Y-96154487D01*
X150978577Y-96161618D01*
X151025713Y-96171687D01*
X151056968Y-96179652D01*
X151075697Y-96186850D01*
X151085251Y-96194617D01*
X151088984Y-96204289D01*
X151089208Y-96205698D01*
X151088649Y-96221487D01*
X151076754Y-96223828D01*
X151069670Y-96222415D01*
X151010107Y-96208822D01*
X150966015Y-96199248D01*
X150933896Y-96193041D01*
X150910247Y-96189551D01*
X150891568Y-96188129D01*
X150884372Y-96187991D01*
X150856733Y-96191513D01*
X150844315Y-96203754D01*
X150846328Y-96226787D01*
X150858515Y-96255842D01*
X150873438Y-96282107D01*
X150890588Y-96301079D01*
X150914101Y-96315112D01*
X150948111Y-96326565D01*
X150996754Y-96337794D01*
X151005442Y-96339579D01*
X151047341Y-96348789D01*
X151073289Y-96356592D01*
X151086672Y-96364391D01*
X151090874Y-96373587D01*
X151090923Y-96374989D01*
X151087307Y-96390026D01*
X151082910Y-96393000D01*
X151070077Y-96391036D01*
X151042004Y-96385650D01*
X151002234Y-96377600D01*
X150954312Y-96367644D01*
X150901781Y-96356541D01*
X150848185Y-96345048D01*
X150797067Y-96333925D01*
X150751972Y-96323929D01*
X150716442Y-96315819D01*
X150694023Y-96310352D01*
X150688024Y-96308503D01*
X150680350Y-96295253D01*
X150685612Y-96281124D01*
X150697711Y-96276118D01*
X150716049Y-96278521D01*
X150746041Y-96284391D01*
X150773423Y-96290619D01*
X150817523Y-96300699D01*
X150844833Y-96304991D01*
X150857349Y-96303078D01*
X150857065Y-96294545D01*
X150845977Y-96278974D01*
X150843503Y-96276004D01*
X150821072Y-96240518D01*
X150811545Y-96205501D01*
X150814746Y-96174923D01*
X150830495Y-96152756D01*
X150849416Y-96144250D01*
X150867519Y-96144237D01*
X150899790Y-96147868D01*
G37*
G36*
X151076269Y-91957770D02*
G01*
X151087108Y-91976009D01*
X151090923Y-91998043D01*
X151086398Y-92020428D01*
X151076269Y-92026154D01*
X151063562Y-92030231D01*
X151065885Y-92043669D01*
X151076580Y-92059771D01*
X151088971Y-92088287D01*
X151090767Y-92121362D01*
X151082504Y-92151166D01*
X151069211Y-92167254D01*
X151036102Y-92181120D01*
X151016007Y-92177924D01*
X151002768Y-92175819D01*
X150976161Y-92158617D01*
X150951061Y-92127212D01*
X150932916Y-92084563D01*
X150924962Y-92038609D01*
X150924846Y-92032790D01*
X150924663Y-92031809D01*
X150946475Y-92031809D01*
X150950507Y-92055706D01*
X150954192Y-92070253D01*
X150970084Y-92107330D01*
X150991748Y-92132097D01*
X151016007Y-92142887D01*
X151039688Y-92138034D01*
X151055097Y-92123215D01*
X151064819Y-92095082D01*
X151055387Y-92065239D01*
X151041201Y-92047003D01*
X151022306Y-92033840D01*
X150996042Y-92023165D01*
X150969757Y-92017111D01*
X150950797Y-92017808D01*
X150947465Y-92019817D01*
X150946475Y-92031809D01*
X150924663Y-92031809D01*
X150921473Y-92014697D01*
X150907628Y-92005150D01*
X150891287Y-92001205D01*
X150858438Y-91999559D01*
X150840468Y-92009977D01*
X150837238Y-92032798D01*
X150848605Y-92068358D01*
X150856389Y-92084627D01*
X150867895Y-92111860D01*
X150867690Y-92126714D01*
X150864676Y-92129692D01*
X150850798Y-92128345D01*
X150835782Y-92110868D01*
X150821924Y-92080368D01*
X150817348Y-92065682D01*
X150809332Y-92030148D01*
X150809789Y-92005585D01*
X150819365Y-91985066D01*
X150825639Y-91976753D01*
X150843663Y-91954494D01*
X150930658Y-91971495D01*
X150972222Y-91979719D01*
X151008580Y-91987094D01*
X151033905Y-91992433D01*
X151039634Y-91993730D01*
X151055594Y-91994583D01*
X151061184Y-91983129D01*
X151061615Y-91972286D01*
X151063183Y-91954478D01*
X151069895Y-91953105D01*
X151076269Y-91957770D01*
G37*
G36*
X151076269Y-90873385D02*
G01*
X151087108Y-90891624D01*
X151090923Y-90913658D01*
X151086398Y-90936043D01*
X151076269Y-90941770D01*
X151063562Y-90945847D01*
X151065885Y-90959285D01*
X151076580Y-90975387D01*
X151088971Y-91003902D01*
X151090767Y-91036977D01*
X151082504Y-91066782D01*
X151069211Y-91082869D01*
X151036102Y-91096736D01*
X151008516Y-91092348D01*
X151002768Y-91091434D01*
X150976161Y-91074233D01*
X150951014Y-91042757D01*
X150932875Y-91000005D01*
X150924957Y-90953869D01*
X150924864Y-90949096D01*
X150944599Y-90949096D01*
X150948630Y-90968109D01*
X150958519Y-90995781D01*
X150963505Y-91007367D01*
X150984369Y-91039961D01*
X151008516Y-91056396D01*
X151033230Y-91055688D01*
X151053442Y-91039917D01*
X151065383Y-91022161D01*
X151068429Y-91011579D01*
X151062399Y-90999055D01*
X151052427Y-90978872D01*
X151036416Y-90959249D01*
X151013002Y-90944021D01*
X150987183Y-90934569D01*
X150963961Y-90932273D01*
X150948336Y-90938514D01*
X150944599Y-90949096D01*
X150924864Y-90949096D01*
X150924846Y-90948149D01*
X150919254Y-90926558D01*
X150901195Y-90916667D01*
X150866965Y-90913824D01*
X150845843Y-90924726D01*
X150838566Y-90947995D01*
X150845869Y-90982252D01*
X150855122Y-91002884D01*
X150866297Y-91030687D01*
X150864682Y-91045170D01*
X150863724Y-91045896D01*
X150850521Y-91044100D01*
X150835867Y-91026591D01*
X150822225Y-90996796D01*
X150817348Y-90981298D01*
X150809332Y-90945763D01*
X150809789Y-90921201D01*
X150819365Y-90900682D01*
X150825639Y-90892368D01*
X150843663Y-90870110D01*
X150930658Y-90887110D01*
X150972222Y-90895334D01*
X151008580Y-90902710D01*
X151033905Y-90908048D01*
X151039634Y-90909346D01*
X151055594Y-90910198D01*
X151061184Y-90898744D01*
X151061615Y-90887902D01*
X151063183Y-90870094D01*
X151069895Y-90868721D01*
X151076269Y-90873385D01*
G37*
G36*
X150741027Y-91129391D02*
G01*
X150772098Y-91134867D01*
X150813672Y-91142999D01*
X150862015Y-91152976D01*
X150913391Y-91163983D01*
X150964064Y-91175207D01*
X151010297Y-91185837D01*
X151048356Y-91195057D01*
X151074505Y-91202057D01*
X151084893Y-91205889D01*
X151089637Y-91221016D01*
X151088175Y-91227915D01*
X151082938Y-91234206D01*
X151071132Y-91236159D01*
X151048945Y-91233601D01*
X151012565Y-91226354D01*
X151001397Y-91223920D01*
X150963532Y-91215741D01*
X150933145Y-91209462D01*
X150915144Y-91206084D01*
X150912634Y-91205771D01*
X150909564Y-91214749D01*
X150907126Y-91239147D01*
X150905630Y-91274849D01*
X150905307Y-91303538D01*
X150905184Y-91348397D01*
X150906958Y-91378388D01*
X150913849Y-91397343D01*
X150929077Y-91409090D01*
X150955859Y-91417459D01*
X150997415Y-91426281D01*
X151010815Y-91429075D01*
X151053093Y-91439421D01*
X151078219Y-91449311D01*
X151088527Y-91459701D01*
X151088888Y-91461073D01*
X151087626Y-91477242D01*
X151084137Y-91481483D01*
X151072548Y-91480850D01*
X151044964Y-91476572D01*
X151004468Y-91469213D01*
X150954144Y-91459334D01*
X150897076Y-91447498D01*
X150893096Y-91446650D01*
X150828683Y-91432690D01*
X150781049Y-91421700D01*
X150747793Y-91412932D01*
X150726512Y-91405639D01*
X150714804Y-91399071D01*
X150710268Y-91392482D01*
X150709923Y-91389603D01*
X150712682Y-91378209D01*
X150723067Y-91372991D01*
X150744242Y-91373829D01*
X150779370Y-91380602D01*
X150802730Y-91386074D01*
X150834741Y-91393588D01*
X150858860Y-91398853D01*
X150868673Y-91400575D01*
X150871690Y-91391633D01*
X150874104Y-91367187D01*
X150875623Y-91331272D01*
X150876000Y-91299156D01*
X150876000Y-91197389D01*
X150829596Y-91187574D01*
X150792422Y-91179937D01*
X150755968Y-91172787D01*
X150746557Y-91171024D01*
X150720675Y-91163245D01*
X150710484Y-91151051D01*
X150709923Y-91145836D01*
X150716170Y-91130600D01*
X150724196Y-91127385D01*
X150741027Y-91129391D01*
G37*
G36*
X150895092Y-90410662D02*
G01*
X150937765Y-90416703D01*
X150979048Y-90424093D01*
X151027738Y-90434087D01*
X151060203Y-90442078D01*
X151079510Y-90449168D01*
X151088724Y-90456461D01*
X151090923Y-90464347D01*
X151090726Y-90473406D01*
X151088025Y-90478975D01*
X151079650Y-90480997D01*
X151062434Y-90479416D01*
X151033208Y-90474176D01*
X150988805Y-90465221D01*
X150974403Y-90462281D01*
X150931509Y-90454288D01*
X150894946Y-90448870D01*
X150869436Y-90446647D01*
X150860696Y-90447321D01*
X150848654Y-90461086D01*
X150848923Y-90485631D01*
X150861027Y-90516965D01*
X150870977Y-90533357D01*
X150888362Y-90555086D01*
X150908172Y-90568377D01*
X150937667Y-90577471D01*
X150951573Y-90580438D01*
X151007029Y-90591679D01*
X151046002Y-90600069D01*
X151071163Y-90606625D01*
X151085181Y-90612367D01*
X151090724Y-90618315D01*
X151090463Y-90625487D01*
X151087970Y-90632527D01*
X151082912Y-90638202D01*
X151071270Y-90640130D01*
X151049746Y-90638053D01*
X151015046Y-90631715D01*
X150978100Y-90623947D01*
X150934340Y-90615202D01*
X150896942Y-90609034D01*
X150870436Y-90606109D01*
X150860144Y-90606544D01*
X150848224Y-90620332D01*
X150849567Y-90645961D01*
X150863714Y-90681365D01*
X150884394Y-90716008D01*
X150897360Y-90723729D01*
X150924936Y-90733574D01*
X150962533Y-90744044D01*
X150989669Y-90750367D01*
X151036557Y-90761334D01*
X151066903Y-90770705D01*
X151083523Y-90779550D01*
X151089095Y-90788072D01*
X151086627Y-90802257D01*
X151080950Y-90805000D01*
X151067547Y-90803107D01*
X151038988Y-90797929D01*
X150999234Y-90790218D01*
X150952246Y-90780724D01*
X150943465Y-90778913D01*
X150891556Y-90767837D01*
X150855949Y-90759167D01*
X150833715Y-90751859D01*
X150821925Y-90744867D01*
X150817648Y-90737143D01*
X150817384Y-90733893D01*
X150820800Y-90720818D01*
X150834667Y-90719543D01*
X150842779Y-90721333D01*
X150868173Y-90727706D01*
X150847306Y-90698401D01*
X150821357Y-90654548D01*
X150812102Y-90618575D01*
X150819167Y-90588847D01*
X150821480Y-90585025D01*
X150837993Y-90567483D01*
X150853505Y-90560770D01*
X150862734Y-90558680D01*
X150858816Y-90549815D01*
X150849046Y-90538789D01*
X150824965Y-90505268D01*
X150812677Y-90471273D01*
X150812388Y-90440877D01*
X150824304Y-90418153D01*
X150842427Y-90408318D01*
X150861675Y-90407678D01*
X150895092Y-90410662D01*
G37*
G36*
X150834160Y-89282520D02*
G01*
X150836721Y-89300912D01*
X150836923Y-89311353D01*
X150838761Y-89331790D01*
X150846247Y-89336882D01*
X150854019Y-89334520D01*
X150890052Y-89324159D01*
X150920595Y-89328214D01*
X150941342Y-89338762D01*
X150965090Y-89361629D01*
X150982106Y-89392827D01*
X150989153Y-89424833D01*
X150986461Y-89443580D01*
X150986641Y-89460863D01*
X150994107Y-89482535D01*
X151005117Y-89500165D01*
X151014027Y-89505693D01*
X151020494Y-89497085D01*
X151030250Y-89474432D01*
X151036620Y-89455965D01*
X151073279Y-89455965D01*
X151075807Y-89474533D01*
X151087321Y-89493071D01*
X151115465Y-89523009D01*
X151140946Y-89533635D01*
X151164030Y-89524953D01*
X151184982Y-89496968D01*
X151186029Y-89494965D01*
X151195914Y-89470923D01*
X151196549Y-89449222D01*
X151187758Y-89421195D01*
X151184374Y-89412919D01*
X151166121Y-89386223D01*
X151141762Y-89371936D01*
X151116624Y-89372364D01*
X151105495Y-89378761D01*
X151093456Y-89395552D01*
X151081810Y-89422070D01*
X151079549Y-89429043D01*
X151073279Y-89455965D01*
X151036620Y-89455965D01*
X151041268Y-89442490D01*
X151042085Y-89439866D01*
X151058340Y-89391450D01*
X151073054Y-89359232D01*
X151088431Y-89340234D01*
X151106680Y-89331480D01*
X151123637Y-89329846D01*
X151157431Y-89338659D01*
X151185192Y-89362302D01*
X151205355Y-89396589D01*
X151216355Y-89437328D01*
X151216628Y-89480333D01*
X151204610Y-89521413D01*
X151199022Y-89531686D01*
X151180910Y-89554207D01*
X151161576Y-89568358D01*
X151159503Y-89569131D01*
X151140946Y-89568477D01*
X151133458Y-89568213D01*
X151106074Y-89553387D01*
X151083851Y-89528640D01*
X151079141Y-89519830D01*
X151068147Y-89500623D01*
X151058850Y-89499087D01*
X151048698Y-89515790D01*
X151043839Y-89527673D01*
X151031548Y-89559423D01*
X151008537Y-89533214D01*
X150991917Y-89512322D01*
X150981989Y-89496226D01*
X150981552Y-89495081D01*
X150973658Y-89489637D01*
X150955817Y-89497500D01*
X150951255Y-89500405D01*
X150918562Y-89512866D01*
X150897355Y-89511759D01*
X150892038Y-89511482D01*
X150855804Y-89498047D01*
X150831162Y-89472575D01*
X150817366Y-89433521D01*
X150815944Y-89412675D01*
X150836923Y-89412675D01*
X150845169Y-89444511D01*
X150866844Y-89466523D01*
X150897355Y-89476436D01*
X150932110Y-89471971D01*
X150945027Y-89466272D01*
X150961072Y-89448191D01*
X150963682Y-89422652D01*
X150953350Y-89395900D01*
X150938182Y-89379402D01*
X150905624Y-89362066D01*
X150875490Y-89360215D01*
X150851769Y-89372539D01*
X150838456Y-89397725D01*
X150836923Y-89412675D01*
X150815944Y-89412675D01*
X150813670Y-89379341D01*
X150814948Y-89351737D01*
X150818806Y-89317223D01*
X150824057Y-89292780D01*
X150829557Y-89280510D01*
X150834160Y-89282520D01*
G37*
G36*
X149193250Y-93562252D02*
G01*
X149326328Y-93562983D01*
X149441363Y-93563674D01*
X149539849Y-93564373D01*
X149623279Y-93565129D01*
X149693149Y-93565990D01*
X149750953Y-93567004D01*
X149798185Y-93568220D01*
X149836340Y-93569687D01*
X149866912Y-93571453D01*
X149891395Y-93573566D01*
X149911285Y-93576075D01*
X149928074Y-93579028D01*
X149943259Y-93582473D01*
X149958333Y-93586460D01*
X149960759Y-93587130D01*
X150063717Y-93624627D01*
X150154125Y-93676891D01*
X150233100Y-93744732D01*
X150301764Y-93828957D01*
X150307561Y-93837495D01*
X150357895Y-93927916D01*
X150398107Y-94031909D01*
X150427437Y-94145894D01*
X150445123Y-94266293D01*
X150450402Y-94389526D01*
X150445420Y-94485288D01*
X150423186Y-94615515D01*
X150382098Y-94741848D01*
X150355790Y-94800616D01*
X150316829Y-94866207D01*
X150265649Y-94931836D01*
X150206770Y-94992818D01*
X150144711Y-95044463D01*
X150084692Y-95081738D01*
X150060620Y-95093621D01*
X150038243Y-95103955D01*
X150016068Y-95112849D01*
X149992600Y-95120413D01*
X149966344Y-95126754D01*
X149935807Y-95131983D01*
X149899493Y-95136209D01*
X149855909Y-95139540D01*
X149803559Y-95142086D01*
X149740951Y-95143955D01*
X149666588Y-95145257D01*
X149578977Y-95146101D01*
X149476623Y-95146597D01*
X149358033Y-95146852D01*
X149221711Y-95146977D01*
X149190807Y-95146996D01*
X148506961Y-95147423D01*
X148504352Y-94901254D01*
X148501743Y-94655084D01*
X149163775Y-94652138D01*
X149293622Y-94651549D01*
X149405411Y-94650990D01*
X149500619Y-94650409D01*
X149580728Y-94649757D01*
X149647217Y-94648984D01*
X149701564Y-94648040D01*
X149745250Y-94646874D01*
X149779753Y-94645435D01*
X149806554Y-94643675D01*
X149827132Y-94641543D01*
X149842965Y-94638989D01*
X149855535Y-94635962D01*
X149866319Y-94632412D01*
X149876798Y-94628290D01*
X149877673Y-94627931D01*
X149933650Y-94600553D01*
X149975389Y-94568385D01*
X150008192Y-94526608D01*
X150027288Y-94491905D01*
X150044272Y-94454632D01*
X150053884Y-94423550D01*
X150058120Y-94389765D01*
X150058983Y-94350495D01*
X150057971Y-94307892D01*
X150053569Y-94276117D01*
X150043731Y-94246505D01*
X150026408Y-94210392D01*
X150025434Y-94208502D01*
X149990791Y-94153275D01*
X149953432Y-94115973D01*
X149952764Y-94115491D01*
X149937409Y-94105018D01*
X149921614Y-94095912D01*
X149903934Y-94088062D01*
X149882925Y-94081354D01*
X149857142Y-94075675D01*
X149825143Y-94070913D01*
X149785481Y-94066954D01*
X149736714Y-94063685D01*
X149677398Y-94060994D01*
X149606087Y-94058768D01*
X149521337Y-94056893D01*
X149421706Y-94055257D01*
X149305748Y-94053747D01*
X149172018Y-94052250D01*
X149139519Y-94051905D01*
X148502077Y-94045189D01*
X148502077Y-93801861D01*
X148502077Y-93558534D01*
X149193250Y-93562252D01*
G37*
%TO.C,J2*%
X142360000Y-104670000D02*
X143100000Y-104670000D01*
X143100000Y-104670000D02*
X143100000Y-104170000D01*
X136540000Y-104430000D02*
X142860000Y-104430000D01*
X136540000Y-104430000D02*
X136540000Y-78450000D01*
X137000000Y-104430000D02*
X137000000Y-78450000D01*
X142300000Y-104430000D02*
X142300000Y-78450000D01*
X142860000Y-104430000D02*
X142860000Y-78450000D01*
X136540000Y-78450000D02*
X142860000Y-78450000D01*
%TO.C,J3*%
X145355000Y-107375000D02*
X145355000Y-106045000D01*
X146685000Y-107375000D02*
X145355000Y-107375000D01*
X147955000Y-107375000D02*
X153095000Y-107375000D01*
X147955000Y-107375000D02*
X147955000Y-104715000D01*
X153095000Y-107375000D02*
X153095000Y-104715000D01*
X147955000Y-104715000D02*
X153095000Y-104715000D01*
%TO.C,G\u002A\u002A\u002A*%
G36*
X150531992Y-84037039D02*
G01*
X150575313Y-84081432D01*
X150598609Y-84161209D01*
X150604709Y-84264646D01*
X150604709Y-84420534D01*
X150686494Y-84420534D01*
X150768278Y-84420534D01*
X150768278Y-84689255D01*
X150768278Y-84957976D01*
X150892209Y-84957976D01*
X151038977Y-84979560D01*
X151175590Y-85039783D01*
X151292664Y-85131852D01*
X151380811Y-85248976D01*
X151419461Y-85339536D01*
X151436855Y-85409913D01*
X151452999Y-85496562D01*
X151457147Y-85524628D01*
X151472154Y-85635621D01*
X151727760Y-85635621D01*
X151983366Y-85635621D01*
X151983366Y-85717406D01*
X151983366Y-85799191D01*
X152129410Y-85799548D01*
X152222956Y-85802140D01*
X152282395Y-85812602D01*
X152320256Y-85835812D01*
X152349071Y-85876645D01*
X152354802Y-85887263D01*
X152370755Y-85939947D01*
X152355528Y-85997027D01*
X152352229Y-86004099D01*
X152332937Y-86037395D01*
X152306695Y-86057209D01*
X152261525Y-86067783D01*
X152185446Y-86073355D01*
X152152548Y-86074777D01*
X151983366Y-86081643D01*
X151983366Y-86174087D01*
X151983366Y-86266532D01*
X152130786Y-86266532D01*
X152241870Y-86273364D01*
X152313928Y-86296261D01*
X152352974Y-86338822D01*
X152365020Y-86404646D01*
X152365028Y-86406734D01*
X152353613Y-86473223D01*
X152315358Y-86516352D01*
X152244250Y-86539722D01*
X152134274Y-86546932D01*
X152130786Y-86546937D01*
X151983366Y-86546937D01*
X151983366Y-86639381D01*
X151983366Y-86731826D01*
X152152548Y-86738691D01*
X152241073Y-86743558D01*
X152294849Y-86752066D01*
X152325854Y-86768456D01*
X152346070Y-86796967D01*
X152352229Y-86809370D01*
X152370642Y-86868401D01*
X152357815Y-86920299D01*
X152354802Y-86926205D01*
X152326293Y-86971114D01*
X152291222Y-86997431D01*
X152237059Y-87010034D01*
X152151274Y-87013799D01*
X152129410Y-87013920D01*
X151983366Y-87014278D01*
X151983366Y-87096063D01*
X151983366Y-87177847D01*
X151727760Y-87177847D01*
X151472154Y-87177847D01*
X151457147Y-87288841D01*
X151442850Y-87374111D01*
X151425192Y-87453481D01*
X151419461Y-87473933D01*
X151356365Y-87604222D01*
X151257956Y-87714079D01*
X151133619Y-87796713D01*
X150992742Y-87845329D01*
X150892209Y-87855492D01*
X150768278Y-87855492D01*
X150768278Y-88124214D01*
X150768278Y-88392935D01*
X150686494Y-88392935D01*
X150604709Y-88392935D01*
X150604709Y-88556504D01*
X150604709Y-88720074D01*
X150478690Y-88720074D01*
X150404100Y-88717094D01*
X150358410Y-88702060D01*
X150334580Y-88665829D01*
X150325571Y-88599257D01*
X150324304Y-88519543D01*
X150324304Y-88392935D01*
X150242519Y-88392935D01*
X150160735Y-88392935D01*
X150160735Y-88519543D01*
X150158412Y-88616448D01*
X150146845Y-88675813D01*
X150119133Y-88706772D01*
X150068377Y-88718459D01*
X150009270Y-88720074D01*
X149937308Y-88718433D01*
X149898867Y-88708844D01*
X149880743Y-88684304D01*
X149871567Y-88647052D01*
X149861537Y-88572014D01*
X149856987Y-88488838D01*
X149856963Y-88483482D01*
X149854226Y-88424864D01*
X149837890Y-88399284D01*
X149795765Y-88393068D01*
X149776246Y-88392935D01*
X149695529Y-88392935D01*
X149688619Y-88550662D01*
X149681710Y-88708390D01*
X149563977Y-88715282D01*
X149493166Y-88716197D01*
X149442823Y-88710904D01*
X149429616Y-88705545D01*
X149420955Y-88675078D01*
X149414941Y-88612247D01*
X149412989Y-88540926D01*
X149412989Y-88392935D01*
X149331204Y-88392935D01*
X149249419Y-88392935D01*
X149249419Y-88127413D01*
X149249419Y-87861891D01*
X149169702Y-87855492D01*
X149529824Y-87855492D01*
X149529824Y-87972328D01*
X149529824Y-88089163D01*
X150008849Y-88089163D01*
X150487874Y-88089163D01*
X150487874Y-87972328D01*
X150487874Y-87855492D01*
X150008849Y-87855492D01*
X149529824Y-87855492D01*
X149169702Y-87855492D01*
X149102319Y-87850083D01*
X148965389Y-87828498D01*
X148855710Y-87783858D01*
X148756489Y-87708736D01*
X148734298Y-87687282D01*
X148638651Y-87560006D01*
X148584299Y-87413317D01*
X148572287Y-87300524D01*
X148571774Y-87177847D01*
X148303053Y-87177847D01*
X148034332Y-87177847D01*
X148034332Y-87096063D01*
X148034332Y-87014278D01*
X147886067Y-87014278D01*
X147777519Y-87006064D01*
X147707524Y-86978828D01*
X147670418Y-86928684D01*
X147665928Y-86897443D01*
X148314736Y-86897443D01*
X148443255Y-86897443D01*
X148571774Y-86897443D01*
X148571774Y-86406734D01*
X148852868Y-86406734D01*
X148852926Y-86651714D01*
X148853465Y-86854402D01*
X148855032Y-87019238D01*
X148858176Y-87150664D01*
X148863443Y-87253123D01*
X148871382Y-87331054D01*
X148882539Y-87388900D01*
X148897463Y-87431103D01*
X148916700Y-87462103D01*
X148940799Y-87486342D01*
X148970307Y-87508261D01*
X148990336Y-87521810D01*
X149010818Y-87535125D01*
X149031997Y-87546012D01*
X149058509Y-87554718D01*
X149094985Y-87561485D01*
X149146061Y-87566558D01*
X149216371Y-87570181D01*
X149310547Y-87572598D01*
X149433226Y-87574053D01*
X149589039Y-87574790D01*
X149782622Y-87575054D01*
X150001781Y-87575087D01*
X150242378Y-87574843D01*
X150440566Y-87574010D01*
X150600669Y-87572438D01*
X150727009Y-87569979D01*
X150823911Y-87566482D01*
X150895698Y-87561798D01*
X150946693Y-87555776D01*
X150981218Y-87548269D01*
X151001046Y-87540504D01*
X151065090Y-87495773D01*
X151116721Y-87443884D01*
X151128662Y-87427468D01*
X151138478Y-87408498D01*
X151146376Y-87382535D01*
X151152565Y-87345139D01*
X151157253Y-87291870D01*
X151160648Y-87218288D01*
X151162958Y-87119953D01*
X151164392Y-86992425D01*
X151165158Y-86831264D01*
X151165464Y-86632031D01*
X151165518Y-86403240D01*
X151165518Y-85916026D01*
X151469290Y-85916026D01*
X151469290Y-86406734D01*
X151469290Y-86897443D01*
X151586126Y-86897443D01*
X151702961Y-86897443D01*
X151702961Y-86406734D01*
X151702961Y-85916026D01*
X151586126Y-85916026D01*
X151469290Y-85916026D01*
X151165518Y-85916026D01*
X151165518Y-85424631D01*
X151085548Y-85337348D01*
X151005577Y-85250064D01*
X150038574Y-85243489D01*
X149071570Y-85236914D01*
X148991424Y-85290925D01*
X148958232Y-85313701D01*
X148930814Y-85336118D01*
X148908620Y-85362617D01*
X148891096Y-85397643D01*
X148877692Y-85445639D01*
X148867856Y-85511049D01*
X148861035Y-85598317D01*
X148856678Y-85711885D01*
X148854234Y-85856199D01*
X148853150Y-86035700D01*
X148852874Y-86254834D01*
X148852868Y-86406734D01*
X148571774Y-86406734D01*
X148571774Y-85916026D01*
X148443255Y-85916026D01*
X148314736Y-85916026D01*
X148314736Y-86406734D01*
X148314736Y-86897443D01*
X147665928Y-86897443D01*
X147660459Y-86859384D01*
X147667999Y-86799194D01*
X147695896Y-86761336D01*
X147752065Y-86741190D01*
X147844420Y-86734134D01*
X147875436Y-86733873D01*
X148034332Y-86733873D01*
X148034332Y-86640405D01*
X148034332Y-86546937D01*
X147884115Y-86546937D01*
X147776312Y-86539910D01*
X147707250Y-86516232D01*
X147670711Y-86472004D01*
X147660459Y-86406734D01*
X147671667Y-86339156D01*
X147709439Y-86295864D01*
X147779994Y-86272959D01*
X147884115Y-86266532D01*
X148034332Y-86266532D01*
X148034332Y-86173064D01*
X148034332Y-86079595D01*
X147875436Y-86079595D01*
X147772574Y-86075266D01*
X147707897Y-86059056D01*
X147673391Y-86026136D01*
X147661041Y-85971676D01*
X147660459Y-85950025D01*
X147666522Y-85916026D01*
X147673399Y-85877457D01*
X147715634Y-85830395D01*
X147792282Y-85805475D01*
X147890127Y-85799191D01*
X148034332Y-85799191D01*
X148034332Y-85717406D01*
X148034332Y-85635621D01*
X148303053Y-85635621D01*
X148571774Y-85635621D01*
X148572287Y-85512944D01*
X148595515Y-85356440D01*
X148662004Y-85214649D01*
X148734298Y-85126187D01*
X148833472Y-85043326D01*
X148939395Y-84992591D01*
X149068857Y-84966550D01*
X149102319Y-84963386D01*
X149249419Y-84951578D01*
X149249419Y-84724306D01*
X149529824Y-84724306D01*
X149529824Y-84841141D01*
X149529824Y-84957976D01*
X150008849Y-84957976D01*
X150487874Y-84957976D01*
X150487874Y-84841141D01*
X150487874Y-84724306D01*
X150008849Y-84724306D01*
X149529824Y-84724306D01*
X149249419Y-84724306D01*
X149249419Y-84686056D01*
X149249419Y-84420534D01*
X149331204Y-84420534D01*
X149412989Y-84420534D01*
X149412989Y-84273847D01*
X149422961Y-84151922D01*
X149453366Y-84070989D01*
X149504932Y-84029662D01*
X149544929Y-84023294D01*
X149616301Y-84043539D01*
X149664335Y-84104254D01*
X149689015Y-84205412D01*
X149692616Y-84274490D01*
X149693393Y-84420534D01*
X149771979Y-84420534D01*
X149850564Y-84420534D01*
X149862389Y-84273228D01*
X149878480Y-84155426D01*
X149906430Y-84078121D01*
X149949430Y-84035887D01*
X150009431Y-84023294D01*
X150079577Y-84044103D01*
X150128680Y-84105222D01*
X150155628Y-84204688D01*
X150160735Y-84289778D01*
X150160735Y-84420534D01*
X150242519Y-84420534D01*
X150324304Y-84420534D01*
X150324304Y-84289778D01*
X150335700Y-84171136D01*
X150368252Y-84084412D01*
X150419508Y-84034221D01*
X150465923Y-84023294D01*
X150531992Y-84037039D01*
G37*
G36*
X150240152Y-85332142D02*
G01*
X150328783Y-85343996D01*
X150402986Y-85364173D01*
X150408229Y-85366288D01*
X150477042Y-85403686D01*
X150555288Y-85458394D01*
X150593462Y-85489863D01*
X150670490Y-85554327D01*
X150752823Y-85617621D01*
X150786471Y-85641489D01*
X150871218Y-85719730D01*
X150932286Y-85811779D01*
X150958943Y-85874308D01*
X150972332Y-85932775D01*
X150974632Y-86004326D01*
X150968702Y-86097999D01*
X150959727Y-86213397D01*
X150955239Y-86300060D01*
X150955240Y-86375772D01*
X150959730Y-86458317D01*
X150968709Y-86565476D01*
X150968717Y-86565560D01*
X150983980Y-86736069D01*
X150885714Y-86826787D01*
X150826688Y-86887429D01*
X150801371Y-86931940D01*
X150802260Y-86964177D01*
X150803397Y-87016060D01*
X150786871Y-87082535D01*
X150782864Y-87092722D01*
X150752585Y-87146516D01*
X150707000Y-87183553D01*
X150630987Y-87215955D01*
X150627703Y-87217114D01*
X150533256Y-87261189D01*
X150478669Y-87314499D01*
X150473550Y-87323496D01*
X150408732Y-87400589D01*
X150312433Y-87443220D01*
X150184806Y-87451326D01*
X150163859Y-87449646D01*
X150086701Y-87442367D01*
X150033547Y-87438698D01*
X149986474Y-87438539D01*
X149927562Y-87441790D01*
X149845279Y-87447873D01*
X149736173Y-87448842D01*
X149659301Y-87431496D01*
X149641111Y-87422669D01*
X149582597Y-87374992D01*
X149544046Y-87323299D01*
X149494575Y-87268174D01*
X149405879Y-87222906D01*
X149389995Y-87217114D01*
X149312687Y-87184657D01*
X149266320Y-87147975D01*
X149235770Y-87094946D01*
X149234834Y-87092722D01*
X149215860Y-87026397D01*
X149213903Y-86970384D01*
X149215437Y-86964177D01*
X149214548Y-86926181D01*
X149184726Y-86879916D01*
X149131984Y-86826787D01*
X149033718Y-86736069D01*
X149047511Y-86581987D01*
X149155951Y-86581987D01*
X149170692Y-86665460D01*
X149219377Y-86730646D01*
X149298873Y-86781995D01*
X149358234Y-86817613D01*
X149379978Y-86847632D01*
X149376571Y-86869698D01*
X149347638Y-86969341D01*
X149356508Y-87043269D01*
X149402442Y-87089974D01*
X149484703Y-87107949D01*
X149493398Y-87108104D01*
X149566427Y-87116591D01*
X149610067Y-87148647D01*
X149639159Y-87212898D01*
X149684878Y-87285747D01*
X149756818Y-87329136D01*
X149841116Y-87337627D01*
X149905233Y-87317228D01*
X149923256Y-87303985D01*
X149935754Y-87281708D01*
X149943723Y-87242669D01*
X149948161Y-87179139D01*
X149950063Y-87083390D01*
X149950431Y-86966722D01*
X149950431Y-86943150D01*
X150351002Y-86943150D01*
X150358629Y-86966370D01*
X150387791Y-86980656D01*
X150398056Y-86976971D01*
X150407891Y-86952198D01*
X150396831Y-86937255D01*
X150365416Y-86923871D01*
X150351002Y-86943150D01*
X149950431Y-86943150D01*
X149950431Y-86640405D01*
X149845279Y-86640405D01*
X149780664Y-86642232D01*
X149750065Y-86654015D01*
X149740769Y-86685205D01*
X149740127Y-86718568D01*
X149757225Y-86797869D01*
X149786862Y-86839025D01*
X149824326Y-86901061D01*
X149831182Y-86978233D01*
X149806687Y-87049734D01*
X149794924Y-87065014D01*
X149737452Y-87098603D01*
X149663939Y-87105931D01*
X149596059Y-87086821D01*
X149570605Y-87066854D01*
X149530039Y-86992549D01*
X149528922Y-86943150D01*
X149649990Y-86943150D01*
X149657617Y-86966370D01*
X149686779Y-86980656D01*
X149697044Y-86976971D01*
X149706879Y-86952198D01*
X149695819Y-86937255D01*
X149664404Y-86923871D01*
X149649990Y-86943150D01*
X149528922Y-86943150D01*
X149528256Y-86913681D01*
X149564886Y-86844731D01*
X149576558Y-86833603D01*
X149605111Y-86797592D01*
X149619431Y-86743374D01*
X149623292Y-86658579D01*
X149623292Y-86523570D01*
X149786862Y-86523570D01*
X149950431Y-86523570D01*
X149950431Y-86348317D01*
X149950431Y-86173064D01*
X149847779Y-86173064D01*
X149774775Y-86166456D01*
X149734835Y-86139986D01*
X149718767Y-86083683D01*
X149716760Y-86030950D01*
X149705521Y-85978190D01*
X149670956Y-85964328D01*
X149611793Y-85989211D01*
X149575505Y-86013967D01*
X149497927Y-86047853D01*
X149423884Y-86036938D01*
X149360603Y-85983010D01*
X149343610Y-85956610D01*
X149320975Y-85905814D01*
X149322489Y-85892659D01*
X149459723Y-85892659D01*
X149477504Y-85915347D01*
X149483090Y-85916026D01*
X149505778Y-85898244D01*
X149506457Y-85892659D01*
X149488675Y-85869971D01*
X149483090Y-85869292D01*
X149460402Y-85887073D01*
X149459723Y-85892659D01*
X149322489Y-85892659D01*
X149325750Y-85864320D01*
X149343610Y-85828708D01*
X149401854Y-85761228D01*
X149473201Y-85736181D01*
X149550426Y-85755356D01*
X149575505Y-85771350D01*
X149647585Y-85807793D01*
X149722824Y-85822558D01*
X149798424Y-85834005D01*
X149840866Y-85872913D01*
X149856494Y-85946130D01*
X149856963Y-85967433D01*
X149861270Y-86026598D01*
X149878633Y-86051932D01*
X149904416Y-86056228D01*
X149924274Y-86053865D01*
X149937382Y-86041631D01*
X149944852Y-86011815D01*
X149947794Y-85956702D01*
X149947450Y-85892659D01*
X150534608Y-85892659D01*
X150553534Y-85913390D01*
X150569658Y-85916026D01*
X150600754Y-85903408D01*
X150604709Y-85892659D01*
X150585783Y-85871928D01*
X150569658Y-85869292D01*
X150538562Y-85881909D01*
X150534608Y-85892659D01*
X149947450Y-85892659D01*
X149947321Y-85868578D01*
X149946357Y-85822558D01*
X150065219Y-85822558D01*
X150231968Y-85822558D01*
X150331119Y-85819318D01*
X150397797Y-85807680D01*
X150445936Y-85784764D01*
X150458130Y-85775823D01*
X150538628Y-85735162D01*
X150616220Y-85738366D01*
X150674810Y-85775823D01*
X150713196Y-85841418D01*
X150717483Y-85915390D01*
X150692449Y-85984605D01*
X150642871Y-86035928D01*
X150573526Y-86056226D01*
X150572810Y-86056228D01*
X150514994Y-86041954D01*
X150458130Y-86009494D01*
X150412446Y-85982756D01*
X150352015Y-85968213D01*
X150262846Y-85962962D01*
X150232992Y-85962760D01*
X150067266Y-85962760D01*
X150067266Y-86430101D01*
X150067266Y-86897443D01*
X150137368Y-86897443D01*
X150205979Y-86881597D01*
X150254203Y-86850708D01*
X150320250Y-86813529D01*
X150400580Y-86806165D01*
X150474019Y-86829333D01*
X150491875Y-86842647D01*
X150527400Y-86903051D01*
X150530100Y-86977401D01*
X150500322Y-87046721D01*
X150487874Y-87061012D01*
X150429044Y-87096500D01*
X150374660Y-87107746D01*
X150309267Y-87091385D01*
X150265886Y-87061012D01*
X150202753Y-87022849D01*
X150145429Y-87014278D01*
X150067266Y-87014278D01*
X150067266Y-87153319D01*
X150070738Y-87238577D01*
X150083058Y-87288860D01*
X150107081Y-87315538D01*
X150108159Y-87316178D01*
X150192120Y-87339154D01*
X150285242Y-87318480D01*
X150299092Y-87311864D01*
X150347309Y-87268941D01*
X150378538Y-87212898D01*
X150409272Y-87146452D01*
X150454263Y-87115330D01*
X150518619Y-87108104D01*
X150607453Y-87091541D01*
X150661155Y-87046681D01*
X150676358Y-86979054D01*
X150649699Y-86894187D01*
X150649278Y-86893398D01*
X150635767Y-86845431D01*
X150649278Y-86820159D01*
X150669820Y-86777695D01*
X150674810Y-86740883D01*
X150672134Y-86713938D01*
X150657685Y-86697933D01*
X150621834Y-86690028D01*
X150554950Y-86687383D01*
X150492547Y-86687139D01*
X150383908Y-86683898D01*
X150313760Y-86671154D01*
X150274128Y-86644379D01*
X150257034Y-86599041D01*
X150254203Y-86551791D01*
X150239802Y-86476170D01*
X150207469Y-86413110D01*
X150167507Y-86342630D01*
X150168507Y-86313266D01*
X150300937Y-86313266D01*
X150318719Y-86335954D01*
X150324304Y-86336633D01*
X150346992Y-86318851D01*
X150347671Y-86313266D01*
X150329889Y-86290578D01*
X150324304Y-86289899D01*
X150301616Y-86307681D01*
X150300937Y-86313266D01*
X150168507Y-86313266D01*
X150169722Y-86277600D01*
X150209165Y-86211265D01*
X150273972Y-86159706D01*
X150346275Y-86151178D01*
X150415338Y-86185681D01*
X150439443Y-86211265D01*
X150480599Y-86282847D01*
X150479476Y-86347832D01*
X150441139Y-86413110D01*
X150402053Y-86469891D01*
X150393350Y-86508280D01*
X150419123Y-86532162D01*
X150483459Y-86545423D01*
X150587184Y-86551833D01*
X150779962Y-86558620D01*
X150805497Y-86637622D01*
X150824242Y-86685519D01*
X150838149Y-86691878D01*
X150846389Y-86676603D01*
X150860324Y-86576122D01*
X150831518Y-86462837D01*
X150822832Y-86443551D01*
X150801267Y-86392079D01*
X150795811Y-86348899D01*
X150806462Y-86294530D01*
X150822832Y-86241454D01*
X150855725Y-86085411D01*
X150847043Y-85950185D01*
X150796899Y-85836148D01*
X150705403Y-85743672D01*
X150664443Y-85716942D01*
X150582991Y-85661554D01*
X150499480Y-85593326D01*
X150470702Y-85566217D01*
X150396735Y-85503799D01*
X150321206Y-85470353D01*
X150266874Y-85459295D01*
X150180962Y-85451099D01*
X150125551Y-85462358D01*
X150093511Y-85500258D01*
X150077708Y-85571988D01*
X150072084Y-85655594D01*
X150065219Y-85822558D01*
X149946357Y-85822558D01*
X149945308Y-85772480D01*
X149941092Y-85640265D01*
X149932926Y-85548350D01*
X149916812Y-85490299D01*
X149888757Y-85459679D01*
X149844763Y-85450054D01*
X149780835Y-85454990D01*
X149750824Y-85459295D01*
X149663488Y-85481491D01*
X149591454Y-85525453D01*
X149546995Y-85566217D01*
X149471179Y-85633179D01*
X149385366Y-85696679D01*
X149353254Y-85716942D01*
X149248236Y-85802485D01*
X149183076Y-85911165D01*
X149158788Y-86040137D01*
X149176383Y-86186557D01*
X149180547Y-86202272D01*
X149201676Y-86260260D01*
X149230539Y-86285073D01*
X149273884Y-86289899D01*
X149341252Y-86274119D01*
X149389621Y-86243165D01*
X149456091Y-86203849D01*
X149526914Y-86202898D01*
X149590139Y-86234881D01*
X149633815Y-86294365D01*
X149646659Y-86360000D01*
X149627524Y-86435302D01*
X149578450Y-86494113D01*
X149511932Y-86522691D01*
X149497925Y-86523570D01*
X149440109Y-86509295D01*
X149383245Y-86476835D01*
X149304010Y-86434736D01*
X149235132Y-86435117D01*
X149183955Y-86474583D01*
X149157825Y-86549734D01*
X149155951Y-86581987D01*
X149047511Y-86581987D01*
X149048981Y-86565560D01*
X149057963Y-86458378D01*
X149062456Y-86375823D01*
X149062457Y-86360000D01*
X149459723Y-86360000D01*
X149478649Y-86380731D01*
X149494773Y-86383367D01*
X149525869Y-86370750D01*
X149529824Y-86360000D01*
X149510898Y-86339269D01*
X149494773Y-86336633D01*
X149463677Y-86349251D01*
X149459723Y-86360000D01*
X149062457Y-86360000D01*
X149062460Y-86300112D01*
X149057975Y-86213462D01*
X149049003Y-86098089D01*
X149048996Y-86097999D01*
X149042917Y-85998779D01*
X149045892Y-85928641D01*
X149060101Y-85870437D01*
X149085412Y-85811779D01*
X149150729Y-85714767D01*
X149231226Y-85641489D01*
X149306662Y-85586179D01*
X149389554Y-85519674D01*
X149424235Y-85489863D01*
X149497688Y-85432351D01*
X149574567Y-85383570D01*
X149609469Y-85366288D01*
X149684032Y-85344849D01*
X149774337Y-85332316D01*
X149864801Y-85329276D01*
X149939839Y-85336318D01*
X149981892Y-85352237D01*
X150018508Y-85364723D01*
X150037552Y-85352217D01*
X150079550Y-85335684D01*
X150152079Y-85329182D01*
X150240152Y-85332142D01*
G37*
%TO.C,J1*%
X139170000Y-114420000D02*
X139170000Y-115160000D01*
X139170000Y-115160000D02*
X139670000Y-115160000D01*
X139410000Y-108600000D02*
X139410000Y-114920000D01*
X139410000Y-108600000D02*
X147610000Y-108600000D01*
X139410000Y-109060000D02*
X147610000Y-109060000D01*
X139410000Y-114360000D02*
X140180000Y-114360000D01*
X139410000Y-114920000D02*
X140180000Y-114920000D01*
X141760000Y-114360000D02*
X142720000Y-114360000D01*
X141760000Y-114920000D02*
X142720000Y-114920000D01*
X144300000Y-114360000D02*
X145260000Y-114360000D01*
X144300000Y-114920000D02*
X145260000Y-114920000D01*
X146840000Y-114360000D02*
X147610000Y-114360000D01*
X146840000Y-114920000D02*
X147610000Y-114920000D01*
X147610000Y-108600000D02*
X147610000Y-114920000D01*
%TD*%
M02*
