%TF.GenerationSoftware,KiCad,Pcbnew,7.0.10*%
%TF.CreationDate,2024-03-01T13:19:40+01:00*%
%TF.ProjectId,Temp Sensor PCB,54656d70-2053-4656-9e73-6f7220504342,rev?*%
%TF.SameCoordinates,Original*%
%TF.FileFunction,Legend,Bot*%
%TF.FilePolarity,Positive*%
%FSLAX46Y46*%
G04 Gerber Fmt 4.6, Leading zero omitted, Abs format (unit mm)*
G04 Created by KiCad (PCBNEW 7.0.10) date 2024-03-01 13:19:40*
%MOMM*%
%LPD*%
G01*
G04 APERTURE LIST*
%ADD10C,0.150000*%
%ADD11C,0.120000*%
%ADD12C,1.524000*%
G04 APERTURE END LIST*
D10*
X153939696Y-77085819D02*
X154206363Y-76609628D01*
X154396839Y-77085819D02*
X154396839Y-76085819D01*
X154396839Y-76085819D02*
X154092077Y-76085819D01*
X154092077Y-76085819D02*
X154015887Y-76133438D01*
X154015887Y-76133438D02*
X153977792Y-76181057D01*
X153977792Y-76181057D02*
X153939696Y-76276295D01*
X153939696Y-76276295D02*
X153939696Y-76419152D01*
X153939696Y-76419152D02*
X153977792Y-76514390D01*
X153977792Y-76514390D02*
X154015887Y-76562009D01*
X154015887Y-76562009D02*
X154092077Y-76609628D01*
X154092077Y-76609628D02*
X154396839Y-76609628D01*
X153634935Y-77038200D02*
X153520649Y-77085819D01*
X153520649Y-77085819D02*
X153330173Y-77085819D01*
X153330173Y-77085819D02*
X153253982Y-77038200D01*
X153253982Y-77038200D02*
X153215887Y-76990580D01*
X153215887Y-76990580D02*
X153177792Y-76895342D01*
X153177792Y-76895342D02*
X153177792Y-76800104D01*
X153177792Y-76800104D02*
X153215887Y-76704866D01*
X153215887Y-76704866D02*
X153253982Y-76657247D01*
X153253982Y-76657247D02*
X153330173Y-76609628D01*
X153330173Y-76609628D02*
X153482554Y-76562009D01*
X153482554Y-76562009D02*
X153558744Y-76514390D01*
X153558744Y-76514390D02*
X153596839Y-76466771D01*
X153596839Y-76466771D02*
X153634935Y-76371533D01*
X153634935Y-76371533D02*
X153634935Y-76276295D01*
X153634935Y-76276295D02*
X153596839Y-76181057D01*
X153596839Y-76181057D02*
X153558744Y-76133438D01*
X153558744Y-76133438D02*
X153482554Y-76085819D01*
X153482554Y-76085819D02*
X153292077Y-76085819D01*
X153292077Y-76085819D02*
X153177792Y-76133438D01*
X152949220Y-76085819D02*
X152682553Y-77085819D01*
X152682553Y-77085819D02*
X152415887Y-76085819D01*
X142700125Y-104914819D02*
X142433458Y-105914819D01*
X142433458Y-105914819D02*
X142166792Y-104914819D01*
X141481078Y-105914819D02*
X141938221Y-105914819D01*
X141709649Y-105914819D02*
X141709649Y-104914819D01*
X141709649Y-104914819D02*
X141785840Y-105057676D01*
X141785840Y-105057676D02*
X141862030Y-105152914D01*
X141862030Y-105152914D02*
X141938221Y-105200533D01*
X141138220Y-105819580D02*
X141100125Y-105867200D01*
X141100125Y-105867200D02*
X141138220Y-105914819D01*
X141138220Y-105914819D02*
X141176316Y-105867200D01*
X141176316Y-105867200D02*
X141138220Y-105819580D01*
X141138220Y-105819580D02*
X141138220Y-105914819D01*
X140604887Y-104914819D02*
X140528697Y-104914819D01*
X140528697Y-104914819D02*
X140452506Y-104962438D01*
X140452506Y-104962438D02*
X140414411Y-105010057D01*
X140414411Y-105010057D02*
X140376316Y-105105295D01*
X140376316Y-105105295D02*
X140338221Y-105295771D01*
X140338221Y-105295771D02*
X140338221Y-105533866D01*
X140338221Y-105533866D02*
X140376316Y-105724342D01*
X140376316Y-105724342D02*
X140414411Y-105819580D01*
X140414411Y-105819580D02*
X140452506Y-105867200D01*
X140452506Y-105867200D02*
X140528697Y-105914819D01*
X140528697Y-105914819D02*
X140604887Y-105914819D01*
X140604887Y-105914819D02*
X140681078Y-105867200D01*
X140681078Y-105867200D02*
X140719173Y-105819580D01*
X140719173Y-105819580D02*
X140757268Y-105724342D01*
X140757268Y-105724342D02*
X140795364Y-105533866D01*
X140795364Y-105533866D02*
X140795364Y-105295771D01*
X140795364Y-105295771D02*
X140757268Y-105105295D01*
X140757268Y-105105295D02*
X140719173Y-105010057D01*
X140719173Y-105010057D02*
X140681078Y-104962438D01*
X140681078Y-104962438D02*
X140604887Y-104914819D01*
X139995363Y-105819580D02*
X139957268Y-105867200D01*
X139957268Y-105867200D02*
X139995363Y-105914819D01*
X139995363Y-105914819D02*
X140033459Y-105867200D01*
X140033459Y-105867200D02*
X139995363Y-105819580D01*
X139995363Y-105819580D02*
X139995363Y-105914819D01*
X139462030Y-104914819D02*
X139385840Y-104914819D01*
X139385840Y-104914819D02*
X139309649Y-104962438D01*
X139309649Y-104962438D02*
X139271554Y-105010057D01*
X139271554Y-105010057D02*
X139233459Y-105105295D01*
X139233459Y-105105295D02*
X139195364Y-105295771D01*
X139195364Y-105295771D02*
X139195364Y-105533866D01*
X139195364Y-105533866D02*
X139233459Y-105724342D01*
X139233459Y-105724342D02*
X139271554Y-105819580D01*
X139271554Y-105819580D02*
X139309649Y-105867200D01*
X139309649Y-105867200D02*
X139385840Y-105914819D01*
X139385840Y-105914819D02*
X139462030Y-105914819D01*
X139462030Y-105914819D02*
X139538221Y-105867200D01*
X139538221Y-105867200D02*
X139576316Y-105819580D01*
X139576316Y-105819580D02*
X139614411Y-105724342D01*
X139614411Y-105724342D02*
X139652507Y-105533866D01*
X139652507Y-105533866D02*
X139652507Y-105295771D01*
X139652507Y-105295771D02*
X139614411Y-105105295D01*
X139614411Y-105105295D02*
X139576316Y-105010057D01*
X139576316Y-105010057D02*
X139538221Y-104962438D01*
X139538221Y-104962438D02*
X139462030Y-104914819D01*
X138662030Y-106248152D02*
X138662030Y-104819580D01*
X138128697Y-105629104D02*
X137747744Y-105629104D01*
X138204887Y-105914819D02*
X137938220Y-104914819D01*
X137938220Y-104914819D02*
X137671554Y-105914819D01*
X137138221Y-105391009D02*
X137023935Y-105438628D01*
X137023935Y-105438628D02*
X136985840Y-105486247D01*
X136985840Y-105486247D02*
X136947744Y-105581485D01*
X136947744Y-105581485D02*
X136947744Y-105724342D01*
X136947744Y-105724342D02*
X136985840Y-105819580D01*
X136985840Y-105819580D02*
X137023935Y-105867200D01*
X137023935Y-105867200D02*
X137100125Y-105914819D01*
X137100125Y-105914819D02*
X137404887Y-105914819D01*
X137404887Y-105914819D02*
X137404887Y-104914819D01*
X137404887Y-104914819D02*
X137138221Y-104914819D01*
X137138221Y-104914819D02*
X137062030Y-104962438D01*
X137062030Y-104962438D02*
X137023935Y-105010057D01*
X137023935Y-105010057D02*
X136985840Y-105105295D01*
X136985840Y-105105295D02*
X136985840Y-105200533D01*
X136985840Y-105200533D02*
X137023935Y-105295771D01*
X137023935Y-105295771D02*
X137062030Y-105343390D01*
X137062030Y-105343390D02*
X137138221Y-105391009D01*
X137138221Y-105391009D02*
X137404887Y-105391009D01*
X141290458Y-107073819D02*
X141214268Y-107073819D01*
X141214268Y-107073819D02*
X141138077Y-107121438D01*
X141138077Y-107121438D02*
X141099982Y-107169057D01*
X141099982Y-107169057D02*
X141061887Y-107264295D01*
X141061887Y-107264295D02*
X141023792Y-107454771D01*
X141023792Y-107454771D02*
X141023792Y-107692866D01*
X141023792Y-107692866D02*
X141061887Y-107883342D01*
X141061887Y-107883342D02*
X141099982Y-107978580D01*
X141099982Y-107978580D02*
X141138077Y-108026200D01*
X141138077Y-108026200D02*
X141214268Y-108073819D01*
X141214268Y-108073819D02*
X141290458Y-108073819D01*
X141290458Y-108073819D02*
X141366649Y-108026200D01*
X141366649Y-108026200D02*
X141404744Y-107978580D01*
X141404744Y-107978580D02*
X141442839Y-107883342D01*
X141442839Y-107883342D02*
X141480935Y-107692866D01*
X141480935Y-107692866D02*
X141480935Y-107454771D01*
X141480935Y-107454771D02*
X141442839Y-107264295D01*
X141442839Y-107264295D02*
X141404744Y-107169057D01*
X141404744Y-107169057D02*
X141366649Y-107121438D01*
X141366649Y-107121438D02*
X141290458Y-107073819D01*
X140757125Y-107073819D02*
X140261887Y-107073819D01*
X140261887Y-107073819D02*
X140528553Y-107454771D01*
X140528553Y-107454771D02*
X140414268Y-107454771D01*
X140414268Y-107454771D02*
X140338077Y-107502390D01*
X140338077Y-107502390D02*
X140299982Y-107550009D01*
X140299982Y-107550009D02*
X140261887Y-107645247D01*
X140261887Y-107645247D02*
X140261887Y-107883342D01*
X140261887Y-107883342D02*
X140299982Y-107978580D01*
X140299982Y-107978580D02*
X140338077Y-108026200D01*
X140338077Y-108026200D02*
X140414268Y-108073819D01*
X140414268Y-108073819D02*
X140642839Y-108073819D01*
X140642839Y-108073819D02*
X140719030Y-108026200D01*
X140719030Y-108026200D02*
X140757125Y-107978580D01*
X139347601Y-107026200D02*
X140033315Y-108311914D01*
X139119030Y-107169057D02*
X139080934Y-107121438D01*
X139080934Y-107121438D02*
X139004744Y-107073819D01*
X139004744Y-107073819D02*
X138814268Y-107073819D01*
X138814268Y-107073819D02*
X138738077Y-107121438D01*
X138738077Y-107121438D02*
X138699982Y-107169057D01*
X138699982Y-107169057D02*
X138661887Y-107264295D01*
X138661887Y-107264295D02*
X138661887Y-107359533D01*
X138661887Y-107359533D02*
X138699982Y-107502390D01*
X138699982Y-107502390D02*
X139157125Y-108073819D01*
X139157125Y-108073819D02*
X138661887Y-108073819D01*
X137976172Y-107407152D02*
X137976172Y-108073819D01*
X138166648Y-107026200D02*
X138357125Y-107740485D01*
X138357125Y-107740485D02*
X137861886Y-107740485D01*
X153939696Y-79371819D02*
X154206363Y-78895628D01*
X154396839Y-79371819D02*
X154396839Y-78371819D01*
X154396839Y-78371819D02*
X154092077Y-78371819D01*
X154092077Y-78371819D02*
X154015887Y-78419438D01*
X154015887Y-78419438D02*
X153977792Y-78467057D01*
X153977792Y-78467057D02*
X153939696Y-78562295D01*
X153939696Y-78562295D02*
X153939696Y-78705152D01*
X153939696Y-78705152D02*
X153977792Y-78800390D01*
X153977792Y-78800390D02*
X154015887Y-78848009D01*
X154015887Y-78848009D02*
X154092077Y-78895628D01*
X154092077Y-78895628D02*
X154396839Y-78895628D01*
X153634935Y-79324200D02*
X153520649Y-79371819D01*
X153520649Y-79371819D02*
X153330173Y-79371819D01*
X153330173Y-79371819D02*
X153253982Y-79324200D01*
X153253982Y-79324200D02*
X153215887Y-79276580D01*
X153215887Y-79276580D02*
X153177792Y-79181342D01*
X153177792Y-79181342D02*
X153177792Y-79086104D01*
X153177792Y-79086104D02*
X153215887Y-78990866D01*
X153215887Y-78990866D02*
X153253982Y-78943247D01*
X153253982Y-78943247D02*
X153330173Y-78895628D01*
X153330173Y-78895628D02*
X153482554Y-78848009D01*
X153482554Y-78848009D02*
X153558744Y-78800390D01*
X153558744Y-78800390D02*
X153596839Y-78752771D01*
X153596839Y-78752771D02*
X153634935Y-78657533D01*
X153634935Y-78657533D02*
X153634935Y-78562295D01*
X153634935Y-78562295D02*
X153596839Y-78467057D01*
X153596839Y-78467057D02*
X153558744Y-78419438D01*
X153558744Y-78419438D02*
X153482554Y-78371819D01*
X153482554Y-78371819D02*
X153292077Y-78371819D01*
X153292077Y-78371819D02*
X153177792Y-78419438D01*
X152949220Y-78371819D02*
X152682553Y-79371819D01*
X152682553Y-79371819D02*
X152415887Y-78371819D01*
X146851666Y-95069819D02*
X147184999Y-94593628D01*
X147423094Y-95069819D02*
X147423094Y-94069819D01*
X147423094Y-94069819D02*
X147042142Y-94069819D01*
X147042142Y-94069819D02*
X146946904Y-94117438D01*
X146946904Y-94117438D02*
X146899285Y-94165057D01*
X146899285Y-94165057D02*
X146851666Y-94260295D01*
X146851666Y-94260295D02*
X146851666Y-94403152D01*
X146851666Y-94403152D02*
X146899285Y-94498390D01*
X146899285Y-94498390D02*
X146946904Y-94546009D01*
X146946904Y-94546009D02*
X147042142Y-94593628D01*
X147042142Y-94593628D02*
X147423094Y-94593628D01*
X145899285Y-95069819D02*
X146470713Y-95069819D01*
X146184999Y-95069819D02*
X146184999Y-94069819D01*
X146184999Y-94069819D02*
X146280237Y-94212676D01*
X146280237Y-94212676D02*
X146375475Y-94307914D01*
X146375475Y-94307914D02*
X146470713Y-94355533D01*
X146851666Y-83544819D02*
X147184999Y-83068628D01*
X147423094Y-83544819D02*
X147423094Y-82544819D01*
X147423094Y-82544819D02*
X147042142Y-82544819D01*
X147042142Y-82544819D02*
X146946904Y-82592438D01*
X146946904Y-82592438D02*
X146899285Y-82640057D01*
X146899285Y-82640057D02*
X146851666Y-82735295D01*
X146851666Y-82735295D02*
X146851666Y-82878152D01*
X146851666Y-82878152D02*
X146899285Y-82973390D01*
X146899285Y-82973390D02*
X146946904Y-83021009D01*
X146946904Y-83021009D02*
X147042142Y-83068628D01*
X147042142Y-83068628D02*
X147423094Y-83068628D01*
X146518332Y-82544819D02*
X145899285Y-82544819D01*
X145899285Y-82544819D02*
X146232618Y-82925771D01*
X146232618Y-82925771D02*
X146089761Y-82925771D01*
X146089761Y-82925771D02*
X145994523Y-82973390D01*
X145994523Y-82973390D02*
X145946904Y-83021009D01*
X145946904Y-83021009D02*
X145899285Y-83116247D01*
X145899285Y-83116247D02*
X145899285Y-83354342D01*
X145899285Y-83354342D02*
X145946904Y-83449580D01*
X145946904Y-83449580D02*
X145994523Y-83497200D01*
X145994523Y-83497200D02*
X146089761Y-83544819D01*
X146089761Y-83544819D02*
X146375475Y-83544819D01*
X146375475Y-83544819D02*
X146470713Y-83497200D01*
X146470713Y-83497200D02*
X146518332Y-83449580D01*
X149391666Y-80464819D02*
X149724999Y-79988628D01*
X149963094Y-80464819D02*
X149963094Y-79464819D01*
X149963094Y-79464819D02*
X149582142Y-79464819D01*
X149582142Y-79464819D02*
X149486904Y-79512438D01*
X149486904Y-79512438D02*
X149439285Y-79560057D01*
X149439285Y-79560057D02*
X149391666Y-79655295D01*
X149391666Y-79655295D02*
X149391666Y-79798152D01*
X149391666Y-79798152D02*
X149439285Y-79893390D01*
X149439285Y-79893390D02*
X149486904Y-79941009D01*
X149486904Y-79941009D02*
X149582142Y-79988628D01*
X149582142Y-79988628D02*
X149963094Y-79988628D01*
X149010713Y-79560057D02*
X148963094Y-79512438D01*
X148963094Y-79512438D02*
X148867856Y-79464819D01*
X148867856Y-79464819D02*
X148629761Y-79464819D01*
X148629761Y-79464819D02*
X148534523Y-79512438D01*
X148534523Y-79512438D02*
X148486904Y-79560057D01*
X148486904Y-79560057D02*
X148439285Y-79655295D01*
X148439285Y-79655295D02*
X148439285Y-79750533D01*
X148439285Y-79750533D02*
X148486904Y-79893390D01*
X148486904Y-79893390D02*
X149058332Y-80464819D01*
X149058332Y-80464819D02*
X148439285Y-80464819D01*
X149391666Y-90624819D02*
X149724999Y-90148628D01*
X149963094Y-90624819D02*
X149963094Y-89624819D01*
X149963094Y-89624819D02*
X149582142Y-89624819D01*
X149582142Y-89624819D02*
X149486904Y-89672438D01*
X149486904Y-89672438D02*
X149439285Y-89720057D01*
X149439285Y-89720057D02*
X149391666Y-89815295D01*
X149391666Y-89815295D02*
X149391666Y-89958152D01*
X149391666Y-89958152D02*
X149439285Y-90053390D01*
X149439285Y-90053390D02*
X149486904Y-90101009D01*
X149486904Y-90101009D02*
X149582142Y-90148628D01*
X149582142Y-90148628D02*
X149963094Y-90148628D01*
X148486904Y-89624819D02*
X148963094Y-89624819D01*
X148963094Y-89624819D02*
X149010713Y-90101009D01*
X149010713Y-90101009D02*
X148963094Y-90053390D01*
X148963094Y-90053390D02*
X148867856Y-90005771D01*
X148867856Y-90005771D02*
X148629761Y-90005771D01*
X148629761Y-90005771D02*
X148534523Y-90053390D01*
X148534523Y-90053390D02*
X148486904Y-90101009D01*
X148486904Y-90101009D02*
X148439285Y-90196247D01*
X148439285Y-90196247D02*
X148439285Y-90434342D01*
X148439285Y-90434342D02*
X148486904Y-90529580D01*
X148486904Y-90529580D02*
X148534523Y-90577200D01*
X148534523Y-90577200D02*
X148629761Y-90624819D01*
X148629761Y-90624819D02*
X148867856Y-90624819D01*
X148867856Y-90624819D02*
X148963094Y-90577200D01*
X148963094Y-90577200D02*
X149010713Y-90529580D01*
X145581666Y-91069819D02*
X145914999Y-90593628D01*
X146153094Y-91069819D02*
X146153094Y-90069819D01*
X146153094Y-90069819D02*
X145772142Y-90069819D01*
X145772142Y-90069819D02*
X145676904Y-90117438D01*
X145676904Y-90117438D02*
X145629285Y-90165057D01*
X145629285Y-90165057D02*
X145581666Y-90260295D01*
X145581666Y-90260295D02*
X145581666Y-90403152D01*
X145581666Y-90403152D02*
X145629285Y-90498390D01*
X145629285Y-90498390D02*
X145676904Y-90546009D01*
X145676904Y-90546009D02*
X145772142Y-90593628D01*
X145772142Y-90593628D02*
X146153094Y-90593628D01*
X144724523Y-90403152D02*
X144724523Y-91069819D01*
X144962618Y-90022200D02*
X145200713Y-90736485D01*
X145200713Y-90736485D02*
X144581666Y-90736485D01*
X135210475Y-99514819D02*
X135210475Y-98514819D01*
X135210475Y-98514819D02*
X135019999Y-98514819D01*
X135019999Y-98514819D02*
X134905713Y-98562438D01*
X134905713Y-98562438D02*
X134829523Y-98657676D01*
X134829523Y-98657676D02*
X134791428Y-98752914D01*
X134791428Y-98752914D02*
X134753332Y-98943390D01*
X134753332Y-98943390D02*
X134753332Y-99086247D01*
X134753332Y-99086247D02*
X134791428Y-99276723D01*
X134791428Y-99276723D02*
X134829523Y-99371961D01*
X134829523Y-99371961D02*
X134905713Y-99467200D01*
X134905713Y-99467200D02*
X135019999Y-99514819D01*
X135019999Y-99514819D02*
X135210475Y-99514819D01*
X134296190Y-98943390D02*
X134372380Y-98895771D01*
X134372380Y-98895771D02*
X134410475Y-98848152D01*
X134410475Y-98848152D02*
X134448571Y-98752914D01*
X134448571Y-98752914D02*
X134448571Y-98705295D01*
X134448571Y-98705295D02*
X134410475Y-98610057D01*
X134410475Y-98610057D02*
X134372380Y-98562438D01*
X134372380Y-98562438D02*
X134296190Y-98514819D01*
X134296190Y-98514819D02*
X134143809Y-98514819D01*
X134143809Y-98514819D02*
X134067618Y-98562438D01*
X134067618Y-98562438D02*
X134029523Y-98610057D01*
X134029523Y-98610057D02*
X133991428Y-98705295D01*
X133991428Y-98705295D02*
X133991428Y-98752914D01*
X133991428Y-98752914D02*
X134029523Y-98848152D01*
X134029523Y-98848152D02*
X134067618Y-98895771D01*
X134067618Y-98895771D02*
X134143809Y-98943390D01*
X134143809Y-98943390D02*
X134296190Y-98943390D01*
X134296190Y-98943390D02*
X134372380Y-98991009D01*
X134372380Y-98991009D02*
X134410475Y-99038628D01*
X134410475Y-99038628D02*
X134448571Y-99133866D01*
X134448571Y-99133866D02*
X134448571Y-99324342D01*
X134448571Y-99324342D02*
X134410475Y-99419580D01*
X134410475Y-99419580D02*
X134372380Y-99467200D01*
X134372380Y-99467200D02*
X134296190Y-99514819D01*
X134296190Y-99514819D02*
X134143809Y-99514819D01*
X134143809Y-99514819D02*
X134067618Y-99467200D01*
X134067618Y-99467200D02*
X134029523Y-99419580D01*
X134029523Y-99419580D02*
X133991428Y-99324342D01*
X133991428Y-99324342D02*
X133991428Y-99133866D01*
X133991428Y-99133866D02*
X134029523Y-99038628D01*
X134029523Y-99038628D02*
X134067618Y-98991009D01*
X134067618Y-98991009D02*
X134143809Y-98943390D01*
X153460476Y-106182438D02*
X153536666Y-106134819D01*
X153536666Y-106134819D02*
X153650952Y-106134819D01*
X153650952Y-106134819D02*
X153765238Y-106182438D01*
X153765238Y-106182438D02*
X153841428Y-106277676D01*
X153841428Y-106277676D02*
X153879523Y-106372914D01*
X153879523Y-106372914D02*
X153917619Y-106563390D01*
X153917619Y-106563390D02*
X153917619Y-106706247D01*
X153917619Y-106706247D02*
X153879523Y-106896723D01*
X153879523Y-106896723D02*
X153841428Y-106991961D01*
X153841428Y-106991961D02*
X153765238Y-107087200D01*
X153765238Y-107087200D02*
X153650952Y-107134819D01*
X153650952Y-107134819D02*
X153574761Y-107134819D01*
X153574761Y-107134819D02*
X153460476Y-107087200D01*
X153460476Y-107087200D02*
X153422380Y-107039580D01*
X153422380Y-107039580D02*
X153422380Y-106706247D01*
X153422380Y-106706247D02*
X153574761Y-106706247D01*
X135210475Y-91894819D02*
X135210475Y-90894819D01*
X135210475Y-90894819D02*
X135019999Y-90894819D01*
X135019999Y-90894819D02*
X134905713Y-90942438D01*
X134905713Y-90942438D02*
X134829523Y-91037676D01*
X134829523Y-91037676D02*
X134791428Y-91132914D01*
X134791428Y-91132914D02*
X134753332Y-91323390D01*
X134753332Y-91323390D02*
X134753332Y-91466247D01*
X134753332Y-91466247D02*
X134791428Y-91656723D01*
X134791428Y-91656723D02*
X134829523Y-91751961D01*
X134829523Y-91751961D02*
X134905713Y-91847200D01*
X134905713Y-91847200D02*
X135019999Y-91894819D01*
X135019999Y-91894819D02*
X135210475Y-91894819D01*
X134029523Y-90894819D02*
X134410475Y-90894819D01*
X134410475Y-90894819D02*
X134448571Y-91371009D01*
X134448571Y-91371009D02*
X134410475Y-91323390D01*
X134410475Y-91323390D02*
X134334285Y-91275771D01*
X134334285Y-91275771D02*
X134143809Y-91275771D01*
X134143809Y-91275771D02*
X134067618Y-91323390D01*
X134067618Y-91323390D02*
X134029523Y-91371009D01*
X134029523Y-91371009D02*
X133991428Y-91466247D01*
X133991428Y-91466247D02*
X133991428Y-91704342D01*
X133991428Y-91704342D02*
X134029523Y-91799580D01*
X134029523Y-91799580D02*
X134067618Y-91847200D01*
X134067618Y-91847200D02*
X134143809Y-91894819D01*
X134143809Y-91894819D02*
X134334285Y-91894819D01*
X134334285Y-91894819D02*
X134410475Y-91847200D01*
X134410475Y-91847200D02*
X134448571Y-91799580D01*
X153911189Y-108674819D02*
X153644522Y-109674819D01*
X153644522Y-109674819D02*
X153377856Y-108674819D01*
X153111189Y-109674819D02*
X153111189Y-108674819D01*
X152730237Y-109674819D02*
X152730237Y-108674819D01*
X152730237Y-108674819D02*
X152273094Y-109674819D01*
X152273094Y-109674819D02*
X152273094Y-108674819D01*
X134410476Y-88402438D02*
X134486666Y-88354819D01*
X134486666Y-88354819D02*
X134600952Y-88354819D01*
X134600952Y-88354819D02*
X134715238Y-88402438D01*
X134715238Y-88402438D02*
X134791428Y-88497676D01*
X134791428Y-88497676D02*
X134829523Y-88592914D01*
X134829523Y-88592914D02*
X134867619Y-88783390D01*
X134867619Y-88783390D02*
X134867619Y-88926247D01*
X134867619Y-88926247D02*
X134829523Y-89116723D01*
X134829523Y-89116723D02*
X134791428Y-89211961D01*
X134791428Y-89211961D02*
X134715238Y-89307200D01*
X134715238Y-89307200D02*
X134600952Y-89354819D01*
X134600952Y-89354819D02*
X134524761Y-89354819D01*
X134524761Y-89354819D02*
X134410476Y-89307200D01*
X134410476Y-89307200D02*
X134372380Y-89259580D01*
X134372380Y-89259580D02*
X134372380Y-88926247D01*
X134372380Y-88926247D02*
X134524761Y-88926247D01*
X135210475Y-94434819D02*
X135210475Y-93434819D01*
X135210475Y-93434819D02*
X135019999Y-93434819D01*
X135019999Y-93434819D02*
X134905713Y-93482438D01*
X134905713Y-93482438D02*
X134829523Y-93577676D01*
X134829523Y-93577676D02*
X134791428Y-93672914D01*
X134791428Y-93672914D02*
X134753332Y-93863390D01*
X134753332Y-93863390D02*
X134753332Y-94006247D01*
X134753332Y-94006247D02*
X134791428Y-94196723D01*
X134791428Y-94196723D02*
X134829523Y-94291961D01*
X134829523Y-94291961D02*
X134905713Y-94387200D01*
X134905713Y-94387200D02*
X135019999Y-94434819D01*
X135019999Y-94434819D02*
X135210475Y-94434819D01*
X134067618Y-93434819D02*
X134219999Y-93434819D01*
X134219999Y-93434819D02*
X134296190Y-93482438D01*
X134296190Y-93482438D02*
X134334285Y-93530057D01*
X134334285Y-93530057D02*
X134410475Y-93672914D01*
X134410475Y-93672914D02*
X134448571Y-93863390D01*
X134448571Y-93863390D02*
X134448571Y-94244342D01*
X134448571Y-94244342D02*
X134410475Y-94339580D01*
X134410475Y-94339580D02*
X134372380Y-94387200D01*
X134372380Y-94387200D02*
X134296190Y-94434819D01*
X134296190Y-94434819D02*
X134143809Y-94434819D01*
X134143809Y-94434819D02*
X134067618Y-94387200D01*
X134067618Y-94387200D02*
X134029523Y-94339580D01*
X134029523Y-94339580D02*
X133991428Y-94244342D01*
X133991428Y-94244342D02*
X133991428Y-94006247D01*
X133991428Y-94006247D02*
X134029523Y-93911009D01*
X134029523Y-93911009D02*
X134067618Y-93863390D01*
X134067618Y-93863390D02*
X134143809Y-93815771D01*
X134143809Y-93815771D02*
X134296190Y-93815771D01*
X134296190Y-93815771D02*
X134372380Y-93863390D01*
X134372380Y-93863390D02*
X134410475Y-93911009D01*
X134410475Y-93911009D02*
X134448571Y-94006247D01*
X146962381Y-71574819D02*
X147295714Y-71098628D01*
X147533809Y-71574819D02*
X147533809Y-70574819D01*
X147533809Y-70574819D02*
X147152857Y-70574819D01*
X147152857Y-70574819D02*
X147057619Y-70622438D01*
X147057619Y-70622438D02*
X147010000Y-70670057D01*
X147010000Y-70670057D02*
X146962381Y-70765295D01*
X146962381Y-70765295D02*
X146962381Y-70908152D01*
X146962381Y-70908152D02*
X147010000Y-71003390D01*
X147010000Y-71003390D02*
X147057619Y-71051009D01*
X147057619Y-71051009D02*
X147152857Y-71098628D01*
X147152857Y-71098628D02*
X147533809Y-71098628D01*
X146200476Y-71051009D02*
X146533809Y-71051009D01*
X146533809Y-71574819D02*
X146533809Y-70574819D01*
X146533809Y-70574819D02*
X146057619Y-70574819D01*
X144962380Y-71289104D02*
X144486190Y-71289104D01*
X145057618Y-71574819D02*
X144724285Y-70574819D01*
X144724285Y-70574819D02*
X144390952Y-71574819D01*
X144057618Y-70908152D02*
X144057618Y-71574819D01*
X144057618Y-71003390D02*
X144009999Y-70955771D01*
X144009999Y-70955771D02*
X143914761Y-70908152D01*
X143914761Y-70908152D02*
X143771904Y-70908152D01*
X143771904Y-70908152D02*
X143676666Y-70955771D01*
X143676666Y-70955771D02*
X143629047Y-71051009D01*
X143629047Y-71051009D02*
X143629047Y-71574819D01*
X143295713Y-70908152D02*
X142914761Y-70908152D01*
X143152856Y-70574819D02*
X143152856Y-71431961D01*
X143152856Y-71431961D02*
X143105237Y-71527200D01*
X143105237Y-71527200D02*
X143009999Y-71574819D01*
X143009999Y-71574819D02*
X142914761Y-71574819D01*
X142200475Y-71527200D02*
X142295713Y-71574819D01*
X142295713Y-71574819D02*
X142486189Y-71574819D01*
X142486189Y-71574819D02*
X142581427Y-71527200D01*
X142581427Y-71527200D02*
X142629046Y-71431961D01*
X142629046Y-71431961D02*
X142629046Y-71051009D01*
X142629046Y-71051009D02*
X142581427Y-70955771D01*
X142581427Y-70955771D02*
X142486189Y-70908152D01*
X142486189Y-70908152D02*
X142295713Y-70908152D01*
X142295713Y-70908152D02*
X142200475Y-70955771D01*
X142200475Y-70955771D02*
X142152856Y-71051009D01*
X142152856Y-71051009D02*
X142152856Y-71146247D01*
X142152856Y-71146247D02*
X142629046Y-71241485D01*
X141724284Y-70908152D02*
X141724284Y-71574819D01*
X141724284Y-71003390D02*
X141676665Y-70955771D01*
X141676665Y-70955771D02*
X141581427Y-70908152D01*
X141581427Y-70908152D02*
X141438570Y-70908152D01*
X141438570Y-70908152D02*
X141343332Y-70955771D01*
X141343332Y-70955771D02*
X141295713Y-71051009D01*
X141295713Y-71051009D02*
X141295713Y-71574819D01*
X140819522Y-70908152D02*
X140819522Y-71574819D01*
X140819522Y-71003390D02*
X140771903Y-70955771D01*
X140771903Y-70955771D02*
X140676665Y-70908152D01*
X140676665Y-70908152D02*
X140533808Y-70908152D01*
X140533808Y-70908152D02*
X140438570Y-70955771D01*
X140438570Y-70955771D02*
X140390951Y-71051009D01*
X140390951Y-71051009D02*
X140390951Y-71574819D01*
X139486189Y-71574819D02*
X139486189Y-71051009D01*
X139486189Y-71051009D02*
X139533808Y-70955771D01*
X139533808Y-70955771D02*
X139629046Y-70908152D01*
X139629046Y-70908152D02*
X139819522Y-70908152D01*
X139819522Y-70908152D02*
X139914760Y-70955771D01*
X139486189Y-71527200D02*
X139581427Y-71574819D01*
X139581427Y-71574819D02*
X139819522Y-71574819D01*
X139819522Y-71574819D02*
X139914760Y-71527200D01*
X139914760Y-71527200D02*
X139962379Y-71431961D01*
X139962379Y-71431961D02*
X139962379Y-71336723D01*
X139962379Y-71336723D02*
X139914760Y-71241485D01*
X139914760Y-71241485D02*
X139819522Y-71193866D01*
X139819522Y-71193866D02*
X139581427Y-71193866D01*
X139581427Y-71193866D02*
X139486189Y-71146247D01*
X135210475Y-79194819D02*
X135210475Y-78194819D01*
X135210475Y-78194819D02*
X135019999Y-78194819D01*
X135019999Y-78194819D02*
X134905713Y-78242438D01*
X134905713Y-78242438D02*
X134829523Y-78337676D01*
X134829523Y-78337676D02*
X134791428Y-78432914D01*
X134791428Y-78432914D02*
X134753332Y-78623390D01*
X134753332Y-78623390D02*
X134753332Y-78766247D01*
X134753332Y-78766247D02*
X134791428Y-78956723D01*
X134791428Y-78956723D02*
X134829523Y-79051961D01*
X134829523Y-79051961D02*
X134905713Y-79147200D01*
X134905713Y-79147200D02*
X135019999Y-79194819D01*
X135019999Y-79194819D02*
X135210475Y-79194819D01*
X134448571Y-78290057D02*
X134410475Y-78242438D01*
X134410475Y-78242438D02*
X134334285Y-78194819D01*
X134334285Y-78194819D02*
X134143809Y-78194819D01*
X134143809Y-78194819D02*
X134067618Y-78242438D01*
X134067618Y-78242438D02*
X134029523Y-78290057D01*
X134029523Y-78290057D02*
X133991428Y-78385295D01*
X133991428Y-78385295D02*
X133991428Y-78480533D01*
X133991428Y-78480533D02*
X134029523Y-78623390D01*
X134029523Y-78623390D02*
X134486666Y-79194819D01*
X134486666Y-79194819D02*
X133991428Y-79194819D01*
X134753332Y-102054819D02*
X135019999Y-101578628D01*
X135210475Y-102054819D02*
X135210475Y-101054819D01*
X135210475Y-101054819D02*
X134905713Y-101054819D01*
X134905713Y-101054819D02*
X134829523Y-101102438D01*
X134829523Y-101102438D02*
X134791428Y-101150057D01*
X134791428Y-101150057D02*
X134753332Y-101245295D01*
X134753332Y-101245295D02*
X134753332Y-101388152D01*
X134753332Y-101388152D02*
X134791428Y-101483390D01*
X134791428Y-101483390D02*
X134829523Y-101531009D01*
X134829523Y-101531009D02*
X134905713Y-101578628D01*
X134905713Y-101578628D02*
X135210475Y-101578628D01*
X134486666Y-101054819D02*
X133953332Y-102054819D01*
X133953332Y-101054819D02*
X134486666Y-102054819D01*
X154260475Y-101531009D02*
X153993809Y-101531009D01*
X153879523Y-102054819D02*
X154260475Y-102054819D01*
X154260475Y-102054819D02*
X154260475Y-101054819D01*
X154260475Y-101054819D02*
X153879523Y-101054819D01*
X153536665Y-102054819D02*
X153536665Y-101054819D01*
X153536665Y-101054819D02*
X153079522Y-102054819D01*
X153079522Y-102054819D02*
X153079522Y-101054819D01*
X153460476Y-96022438D02*
X153536666Y-95974819D01*
X153536666Y-95974819D02*
X153650952Y-95974819D01*
X153650952Y-95974819D02*
X153765238Y-96022438D01*
X153765238Y-96022438D02*
X153841428Y-96117676D01*
X153841428Y-96117676D02*
X153879523Y-96212914D01*
X153879523Y-96212914D02*
X153917619Y-96403390D01*
X153917619Y-96403390D02*
X153917619Y-96546247D01*
X153917619Y-96546247D02*
X153879523Y-96736723D01*
X153879523Y-96736723D02*
X153841428Y-96831961D01*
X153841428Y-96831961D02*
X153765238Y-96927200D01*
X153765238Y-96927200D02*
X153650952Y-96974819D01*
X153650952Y-96974819D02*
X153574761Y-96974819D01*
X153574761Y-96974819D02*
X153460476Y-96927200D01*
X153460476Y-96927200D02*
X153422380Y-96879580D01*
X153422380Y-96879580D02*
X153422380Y-96546247D01*
X153422380Y-96546247D02*
X153574761Y-96546247D01*
X154279524Y-81687200D02*
X154165238Y-81734819D01*
X154165238Y-81734819D02*
X153974762Y-81734819D01*
X153974762Y-81734819D02*
X153898571Y-81687200D01*
X153898571Y-81687200D02*
X153860476Y-81639580D01*
X153860476Y-81639580D02*
X153822381Y-81544342D01*
X153822381Y-81544342D02*
X153822381Y-81449104D01*
X153822381Y-81449104D02*
X153860476Y-81353866D01*
X153860476Y-81353866D02*
X153898571Y-81306247D01*
X153898571Y-81306247D02*
X153974762Y-81258628D01*
X153974762Y-81258628D02*
X154127143Y-81211009D01*
X154127143Y-81211009D02*
X154203333Y-81163390D01*
X154203333Y-81163390D02*
X154241428Y-81115771D01*
X154241428Y-81115771D02*
X154279524Y-81020533D01*
X154279524Y-81020533D02*
X154279524Y-80925295D01*
X154279524Y-80925295D02*
X154241428Y-80830057D01*
X154241428Y-80830057D02*
X154203333Y-80782438D01*
X154203333Y-80782438D02*
X154127143Y-80734819D01*
X154127143Y-80734819D02*
X153936666Y-80734819D01*
X153936666Y-80734819D02*
X153822381Y-80782438D01*
X153555714Y-80734819D02*
X153060476Y-80734819D01*
X153060476Y-80734819D02*
X153327142Y-81115771D01*
X153327142Y-81115771D02*
X153212857Y-81115771D01*
X153212857Y-81115771D02*
X153136666Y-81163390D01*
X153136666Y-81163390D02*
X153098571Y-81211009D01*
X153098571Y-81211009D02*
X153060476Y-81306247D01*
X153060476Y-81306247D02*
X153060476Y-81544342D01*
X153060476Y-81544342D02*
X153098571Y-81639580D01*
X153098571Y-81639580D02*
X153136666Y-81687200D01*
X153136666Y-81687200D02*
X153212857Y-81734819D01*
X153212857Y-81734819D02*
X153441428Y-81734819D01*
X153441428Y-81734819D02*
X153517619Y-81687200D01*
X153517619Y-81687200D02*
X153555714Y-81639580D01*
X135229523Y-103594819D02*
X134772380Y-103594819D01*
X135000952Y-104594819D02*
X135000952Y-103594819D01*
X134581904Y-103594819D02*
X134048570Y-104594819D01*
X134048570Y-103594819D02*
X134581904Y-104594819D01*
X154298571Y-94387200D02*
X154184285Y-94434819D01*
X154184285Y-94434819D02*
X153993809Y-94434819D01*
X153993809Y-94434819D02*
X153917618Y-94387200D01*
X153917618Y-94387200D02*
X153879523Y-94339580D01*
X153879523Y-94339580D02*
X153841428Y-94244342D01*
X153841428Y-94244342D02*
X153841428Y-94149104D01*
X153841428Y-94149104D02*
X153879523Y-94053866D01*
X153879523Y-94053866D02*
X153917618Y-94006247D01*
X153917618Y-94006247D02*
X153993809Y-93958628D01*
X153993809Y-93958628D02*
X154146190Y-93911009D01*
X154146190Y-93911009D02*
X154222380Y-93863390D01*
X154222380Y-93863390D02*
X154260475Y-93815771D01*
X154260475Y-93815771D02*
X154298571Y-93720533D01*
X154298571Y-93720533D02*
X154298571Y-93625295D01*
X154298571Y-93625295D02*
X154260475Y-93530057D01*
X154260475Y-93530057D02*
X154222380Y-93482438D01*
X154222380Y-93482438D02*
X154146190Y-93434819D01*
X154146190Y-93434819D02*
X153955713Y-93434819D01*
X153955713Y-93434819D02*
X153841428Y-93482438D01*
X153498570Y-94434819D02*
X153498570Y-93434819D01*
X153041427Y-94434819D02*
X153384285Y-93863390D01*
X153041427Y-93434819D02*
X153498570Y-94006247D01*
X135229523Y-85814819D02*
X134734285Y-85814819D01*
X134734285Y-85814819D02*
X135000951Y-86195771D01*
X135000951Y-86195771D02*
X134886666Y-86195771D01*
X134886666Y-86195771D02*
X134810475Y-86243390D01*
X134810475Y-86243390D02*
X134772380Y-86291009D01*
X134772380Y-86291009D02*
X134734285Y-86386247D01*
X134734285Y-86386247D02*
X134734285Y-86624342D01*
X134734285Y-86624342D02*
X134772380Y-86719580D01*
X134772380Y-86719580D02*
X134810475Y-86767200D01*
X134810475Y-86767200D02*
X134886666Y-86814819D01*
X134886666Y-86814819D02*
X135115237Y-86814819D01*
X135115237Y-86814819D02*
X135191428Y-86767200D01*
X135191428Y-86767200D02*
X135229523Y-86719580D01*
X134505713Y-85814819D02*
X134239046Y-86814819D01*
X134239046Y-86814819D02*
X133972380Y-85814819D01*
X154279524Y-86767200D02*
X154165238Y-86814819D01*
X154165238Y-86814819D02*
X153974762Y-86814819D01*
X153974762Y-86814819D02*
X153898571Y-86767200D01*
X153898571Y-86767200D02*
X153860476Y-86719580D01*
X153860476Y-86719580D02*
X153822381Y-86624342D01*
X153822381Y-86624342D02*
X153822381Y-86529104D01*
X153822381Y-86529104D02*
X153860476Y-86433866D01*
X153860476Y-86433866D02*
X153898571Y-86386247D01*
X153898571Y-86386247D02*
X153974762Y-86338628D01*
X153974762Y-86338628D02*
X154127143Y-86291009D01*
X154127143Y-86291009D02*
X154203333Y-86243390D01*
X154203333Y-86243390D02*
X154241428Y-86195771D01*
X154241428Y-86195771D02*
X154279524Y-86100533D01*
X154279524Y-86100533D02*
X154279524Y-86005295D01*
X154279524Y-86005295D02*
X154241428Y-85910057D01*
X154241428Y-85910057D02*
X154203333Y-85862438D01*
X154203333Y-85862438D02*
X154127143Y-85814819D01*
X154127143Y-85814819D02*
X153936666Y-85814819D01*
X153936666Y-85814819D02*
X153822381Y-85862438D01*
X153060476Y-86814819D02*
X153517619Y-86814819D01*
X153289047Y-86814819D02*
X153289047Y-85814819D01*
X153289047Y-85814819D02*
X153365238Y-85957676D01*
X153365238Y-85957676D02*
X153441428Y-86052914D01*
X153441428Y-86052914D02*
X153517619Y-86100533D01*
X154298571Y-89307200D02*
X154184285Y-89354819D01*
X154184285Y-89354819D02*
X153993809Y-89354819D01*
X153993809Y-89354819D02*
X153917618Y-89307200D01*
X153917618Y-89307200D02*
X153879523Y-89259580D01*
X153879523Y-89259580D02*
X153841428Y-89164342D01*
X153841428Y-89164342D02*
X153841428Y-89069104D01*
X153841428Y-89069104D02*
X153879523Y-88973866D01*
X153879523Y-88973866D02*
X153917618Y-88926247D01*
X153917618Y-88926247D02*
X153993809Y-88878628D01*
X153993809Y-88878628D02*
X154146190Y-88831009D01*
X154146190Y-88831009D02*
X154222380Y-88783390D01*
X154222380Y-88783390D02*
X154260475Y-88735771D01*
X154260475Y-88735771D02*
X154298571Y-88640533D01*
X154298571Y-88640533D02*
X154298571Y-88545295D01*
X154298571Y-88545295D02*
X154260475Y-88450057D01*
X154260475Y-88450057D02*
X154222380Y-88402438D01*
X154222380Y-88402438D02*
X154146190Y-88354819D01*
X154146190Y-88354819D02*
X153955713Y-88354819D01*
X153955713Y-88354819D02*
X153841428Y-88402438D01*
X153041427Y-89259580D02*
X153079523Y-89307200D01*
X153079523Y-89307200D02*
X153193808Y-89354819D01*
X153193808Y-89354819D02*
X153269999Y-89354819D01*
X153269999Y-89354819D02*
X153384285Y-89307200D01*
X153384285Y-89307200D02*
X153460475Y-89211961D01*
X153460475Y-89211961D02*
X153498570Y-89116723D01*
X153498570Y-89116723D02*
X153536666Y-88926247D01*
X153536666Y-88926247D02*
X153536666Y-88783390D01*
X153536666Y-88783390D02*
X153498570Y-88592914D01*
X153498570Y-88592914D02*
X153460475Y-88497676D01*
X153460475Y-88497676D02*
X153384285Y-88402438D01*
X153384285Y-88402438D02*
X153269999Y-88354819D01*
X153269999Y-88354819D02*
X153193808Y-88354819D01*
X153193808Y-88354819D02*
X153079523Y-88402438D01*
X153079523Y-88402438D02*
X153041427Y-88450057D01*
X154279523Y-98514819D02*
X153784285Y-98514819D01*
X153784285Y-98514819D02*
X154050951Y-98895771D01*
X154050951Y-98895771D02*
X153936666Y-98895771D01*
X153936666Y-98895771D02*
X153860475Y-98943390D01*
X153860475Y-98943390D02*
X153822380Y-98991009D01*
X153822380Y-98991009D02*
X153784285Y-99086247D01*
X153784285Y-99086247D02*
X153784285Y-99324342D01*
X153784285Y-99324342D02*
X153822380Y-99419580D01*
X153822380Y-99419580D02*
X153860475Y-99467200D01*
X153860475Y-99467200D02*
X153936666Y-99514819D01*
X153936666Y-99514819D02*
X154165237Y-99514819D01*
X154165237Y-99514819D02*
X154241428Y-99467200D01*
X154241428Y-99467200D02*
X154279523Y-99419580D01*
X153555713Y-98514819D02*
X153289046Y-99514819D01*
X153289046Y-99514819D02*
X153022380Y-98514819D01*
X153606428Y-73829104D02*
X153225475Y-73829104D01*
X153682618Y-74114819D02*
X153415951Y-73114819D01*
X153415951Y-73114819D02*
X153149285Y-74114819D01*
X152730237Y-73114819D02*
X152654047Y-73114819D01*
X152654047Y-73114819D02*
X152577856Y-73162438D01*
X152577856Y-73162438D02*
X152539761Y-73210057D01*
X152539761Y-73210057D02*
X152501666Y-73305295D01*
X152501666Y-73305295D02*
X152463571Y-73495771D01*
X152463571Y-73495771D02*
X152463571Y-73733866D01*
X152463571Y-73733866D02*
X152501666Y-73924342D01*
X152501666Y-73924342D02*
X152539761Y-74019580D01*
X152539761Y-74019580D02*
X152577856Y-74067200D01*
X152577856Y-74067200D02*
X152654047Y-74114819D01*
X152654047Y-74114819D02*
X152730237Y-74114819D01*
X152730237Y-74114819D02*
X152806428Y-74067200D01*
X152806428Y-74067200D02*
X152844523Y-74019580D01*
X152844523Y-74019580D02*
X152882618Y-73924342D01*
X152882618Y-73924342D02*
X152920714Y-73733866D01*
X152920714Y-73733866D02*
X152920714Y-73495771D01*
X152920714Y-73495771D02*
X152882618Y-73305295D01*
X152882618Y-73305295D02*
X152844523Y-73210057D01*
X152844523Y-73210057D02*
X152806428Y-73162438D01*
X152806428Y-73162438D02*
X152730237Y-73114819D01*
X153473094Y-104594819D02*
X153739761Y-104118628D01*
X153930237Y-104594819D02*
X153930237Y-103594819D01*
X153930237Y-103594819D02*
X153625475Y-103594819D01*
X153625475Y-103594819D02*
X153549285Y-103642438D01*
X153549285Y-103642438D02*
X153511190Y-103690057D01*
X153511190Y-103690057D02*
X153473094Y-103785295D01*
X153473094Y-103785295D02*
X153473094Y-103928152D01*
X153473094Y-103928152D02*
X153511190Y-104023390D01*
X153511190Y-104023390D02*
X153549285Y-104071009D01*
X153549285Y-104071009D02*
X153625475Y-104118628D01*
X153625475Y-104118628D02*
X153930237Y-104118628D01*
X153168333Y-104547200D02*
X153054047Y-104594819D01*
X153054047Y-104594819D02*
X152863571Y-104594819D01*
X152863571Y-104594819D02*
X152787380Y-104547200D01*
X152787380Y-104547200D02*
X152749285Y-104499580D01*
X152749285Y-104499580D02*
X152711190Y-104404342D01*
X152711190Y-104404342D02*
X152711190Y-104309104D01*
X152711190Y-104309104D02*
X152749285Y-104213866D01*
X152749285Y-104213866D02*
X152787380Y-104166247D01*
X152787380Y-104166247D02*
X152863571Y-104118628D01*
X152863571Y-104118628D02*
X153015952Y-104071009D01*
X153015952Y-104071009D02*
X153092142Y-104023390D01*
X153092142Y-104023390D02*
X153130237Y-103975771D01*
X153130237Y-103975771D02*
X153168333Y-103880533D01*
X153168333Y-103880533D02*
X153168333Y-103785295D01*
X153168333Y-103785295D02*
X153130237Y-103690057D01*
X153130237Y-103690057D02*
X153092142Y-103642438D01*
X153092142Y-103642438D02*
X153015952Y-103594819D01*
X153015952Y-103594819D02*
X152825475Y-103594819D01*
X152825475Y-103594819D02*
X152711190Y-103642438D01*
X152482618Y-103594819D02*
X152025475Y-103594819D01*
X152254047Y-104594819D02*
X152254047Y-103594819D01*
X135210475Y-96974819D02*
X135210475Y-95974819D01*
X135210475Y-95974819D02*
X135019999Y-95974819D01*
X135019999Y-95974819D02*
X134905713Y-96022438D01*
X134905713Y-96022438D02*
X134829523Y-96117676D01*
X134829523Y-96117676D02*
X134791428Y-96212914D01*
X134791428Y-96212914D02*
X134753332Y-96403390D01*
X134753332Y-96403390D02*
X134753332Y-96546247D01*
X134753332Y-96546247D02*
X134791428Y-96736723D01*
X134791428Y-96736723D02*
X134829523Y-96831961D01*
X134829523Y-96831961D02*
X134905713Y-96927200D01*
X134905713Y-96927200D02*
X135019999Y-96974819D01*
X135019999Y-96974819D02*
X135210475Y-96974819D01*
X134486666Y-95974819D02*
X133953332Y-95974819D01*
X133953332Y-95974819D02*
X134296190Y-96974819D01*
X135229523Y-108674819D02*
X134734285Y-108674819D01*
X134734285Y-108674819D02*
X135000951Y-109055771D01*
X135000951Y-109055771D02*
X134886666Y-109055771D01*
X134886666Y-109055771D02*
X134810475Y-109103390D01*
X134810475Y-109103390D02*
X134772380Y-109151009D01*
X134772380Y-109151009D02*
X134734285Y-109246247D01*
X134734285Y-109246247D02*
X134734285Y-109484342D01*
X134734285Y-109484342D02*
X134772380Y-109579580D01*
X134772380Y-109579580D02*
X134810475Y-109627200D01*
X134810475Y-109627200D02*
X134886666Y-109674819D01*
X134886666Y-109674819D02*
X135115237Y-109674819D01*
X135115237Y-109674819D02*
X135191428Y-109627200D01*
X135191428Y-109627200D02*
X135229523Y-109579580D01*
X134505713Y-108674819D02*
X134239046Y-109674819D01*
X134239046Y-109674819D02*
X133972380Y-108674819D01*
X135210475Y-81734819D02*
X135210475Y-80734819D01*
X135210475Y-80734819D02*
X135019999Y-80734819D01*
X135019999Y-80734819D02*
X134905713Y-80782438D01*
X134905713Y-80782438D02*
X134829523Y-80877676D01*
X134829523Y-80877676D02*
X134791428Y-80972914D01*
X134791428Y-80972914D02*
X134753332Y-81163390D01*
X134753332Y-81163390D02*
X134753332Y-81306247D01*
X134753332Y-81306247D02*
X134791428Y-81496723D01*
X134791428Y-81496723D02*
X134829523Y-81591961D01*
X134829523Y-81591961D02*
X134905713Y-81687200D01*
X134905713Y-81687200D02*
X135019999Y-81734819D01*
X135019999Y-81734819D02*
X135210475Y-81734819D01*
X134486666Y-80734819D02*
X133991428Y-80734819D01*
X133991428Y-80734819D02*
X134258094Y-81115771D01*
X134258094Y-81115771D02*
X134143809Y-81115771D01*
X134143809Y-81115771D02*
X134067618Y-81163390D01*
X134067618Y-81163390D02*
X134029523Y-81211009D01*
X134029523Y-81211009D02*
X133991428Y-81306247D01*
X133991428Y-81306247D02*
X133991428Y-81544342D01*
X133991428Y-81544342D02*
X134029523Y-81639580D01*
X134029523Y-81639580D02*
X134067618Y-81687200D01*
X134067618Y-81687200D02*
X134143809Y-81734819D01*
X134143809Y-81734819D02*
X134372380Y-81734819D01*
X134372380Y-81734819D02*
X134448571Y-81687200D01*
X134448571Y-81687200D02*
X134486666Y-81639580D01*
X135210475Y-76654819D02*
X135210475Y-75654819D01*
X135210475Y-75654819D02*
X135019999Y-75654819D01*
X135019999Y-75654819D02*
X134905713Y-75702438D01*
X134905713Y-75702438D02*
X134829523Y-75797676D01*
X134829523Y-75797676D02*
X134791428Y-75892914D01*
X134791428Y-75892914D02*
X134753332Y-76083390D01*
X134753332Y-76083390D02*
X134753332Y-76226247D01*
X134753332Y-76226247D02*
X134791428Y-76416723D01*
X134791428Y-76416723D02*
X134829523Y-76511961D01*
X134829523Y-76511961D02*
X134905713Y-76607200D01*
X134905713Y-76607200D02*
X135019999Y-76654819D01*
X135019999Y-76654819D02*
X135210475Y-76654819D01*
X133991428Y-76654819D02*
X134448571Y-76654819D01*
X134219999Y-76654819D02*
X134219999Y-75654819D01*
X134219999Y-75654819D02*
X134296190Y-75797676D01*
X134296190Y-75797676D02*
X134372380Y-75892914D01*
X134372380Y-75892914D02*
X134448571Y-75940533D01*
X154279524Y-84227200D02*
X154165238Y-84274819D01*
X154165238Y-84274819D02*
X153974762Y-84274819D01*
X153974762Y-84274819D02*
X153898571Y-84227200D01*
X153898571Y-84227200D02*
X153860476Y-84179580D01*
X153860476Y-84179580D02*
X153822381Y-84084342D01*
X153822381Y-84084342D02*
X153822381Y-83989104D01*
X153822381Y-83989104D02*
X153860476Y-83893866D01*
X153860476Y-83893866D02*
X153898571Y-83846247D01*
X153898571Y-83846247D02*
X153974762Y-83798628D01*
X153974762Y-83798628D02*
X154127143Y-83751009D01*
X154127143Y-83751009D02*
X154203333Y-83703390D01*
X154203333Y-83703390D02*
X154241428Y-83655771D01*
X154241428Y-83655771D02*
X154279524Y-83560533D01*
X154279524Y-83560533D02*
X154279524Y-83465295D01*
X154279524Y-83465295D02*
X154241428Y-83370057D01*
X154241428Y-83370057D02*
X154203333Y-83322438D01*
X154203333Y-83322438D02*
X154127143Y-83274819D01*
X154127143Y-83274819D02*
X153936666Y-83274819D01*
X153936666Y-83274819D02*
X153822381Y-83322438D01*
X153517619Y-83370057D02*
X153479523Y-83322438D01*
X153479523Y-83322438D02*
X153403333Y-83274819D01*
X153403333Y-83274819D02*
X153212857Y-83274819D01*
X153212857Y-83274819D02*
X153136666Y-83322438D01*
X153136666Y-83322438D02*
X153098571Y-83370057D01*
X153098571Y-83370057D02*
X153060476Y-83465295D01*
X153060476Y-83465295D02*
X153060476Y-83560533D01*
X153060476Y-83560533D02*
X153098571Y-83703390D01*
X153098571Y-83703390D02*
X153555714Y-84274819D01*
X153555714Y-84274819D02*
X153060476Y-84274819D01*
X135210475Y-74114819D02*
X135210475Y-73114819D01*
X135210475Y-73114819D02*
X135019999Y-73114819D01*
X135019999Y-73114819D02*
X134905713Y-73162438D01*
X134905713Y-73162438D02*
X134829523Y-73257676D01*
X134829523Y-73257676D02*
X134791428Y-73352914D01*
X134791428Y-73352914D02*
X134753332Y-73543390D01*
X134753332Y-73543390D02*
X134753332Y-73686247D01*
X134753332Y-73686247D02*
X134791428Y-73876723D01*
X134791428Y-73876723D02*
X134829523Y-73971961D01*
X134829523Y-73971961D02*
X134905713Y-74067200D01*
X134905713Y-74067200D02*
X135019999Y-74114819D01*
X135019999Y-74114819D02*
X135210475Y-74114819D01*
X134258094Y-73114819D02*
X134181904Y-73114819D01*
X134181904Y-73114819D02*
X134105713Y-73162438D01*
X134105713Y-73162438D02*
X134067618Y-73210057D01*
X134067618Y-73210057D02*
X134029523Y-73305295D01*
X134029523Y-73305295D02*
X133991428Y-73495771D01*
X133991428Y-73495771D02*
X133991428Y-73733866D01*
X133991428Y-73733866D02*
X134029523Y-73924342D01*
X134029523Y-73924342D02*
X134067618Y-74019580D01*
X134067618Y-74019580D02*
X134105713Y-74067200D01*
X134105713Y-74067200D02*
X134181904Y-74114819D01*
X134181904Y-74114819D02*
X134258094Y-74114819D01*
X134258094Y-74114819D02*
X134334285Y-74067200D01*
X134334285Y-74067200D02*
X134372380Y-74019580D01*
X134372380Y-74019580D02*
X134410475Y-73924342D01*
X134410475Y-73924342D02*
X134448571Y-73733866D01*
X134448571Y-73733866D02*
X134448571Y-73495771D01*
X134448571Y-73495771D02*
X134410475Y-73305295D01*
X134410475Y-73305295D02*
X134372380Y-73210057D01*
X134372380Y-73210057D02*
X134334285Y-73162438D01*
X134334285Y-73162438D02*
X134258094Y-73114819D01*
X135210475Y-84274819D02*
X135210475Y-83274819D01*
X135210475Y-83274819D02*
X135019999Y-83274819D01*
X135019999Y-83274819D02*
X134905713Y-83322438D01*
X134905713Y-83322438D02*
X134829523Y-83417676D01*
X134829523Y-83417676D02*
X134791428Y-83512914D01*
X134791428Y-83512914D02*
X134753332Y-83703390D01*
X134753332Y-83703390D02*
X134753332Y-83846247D01*
X134753332Y-83846247D02*
X134791428Y-84036723D01*
X134791428Y-84036723D02*
X134829523Y-84131961D01*
X134829523Y-84131961D02*
X134905713Y-84227200D01*
X134905713Y-84227200D02*
X135019999Y-84274819D01*
X135019999Y-84274819D02*
X135210475Y-84274819D01*
X134067618Y-83608152D02*
X134067618Y-84274819D01*
X134258094Y-83227200D02*
X134448571Y-83941485D01*
X134448571Y-83941485D02*
X133953332Y-83941485D01*
X134410476Y-106182438D02*
X134486666Y-106134819D01*
X134486666Y-106134819D02*
X134600952Y-106134819D01*
X134600952Y-106134819D02*
X134715238Y-106182438D01*
X134715238Y-106182438D02*
X134791428Y-106277676D01*
X134791428Y-106277676D02*
X134829523Y-106372914D01*
X134829523Y-106372914D02*
X134867619Y-106563390D01*
X134867619Y-106563390D02*
X134867619Y-106706247D01*
X134867619Y-106706247D02*
X134829523Y-106896723D01*
X134829523Y-106896723D02*
X134791428Y-106991961D01*
X134791428Y-106991961D02*
X134715238Y-107087200D01*
X134715238Y-107087200D02*
X134600952Y-107134819D01*
X134600952Y-107134819D02*
X134524761Y-107134819D01*
X134524761Y-107134819D02*
X134410476Y-107087200D01*
X134410476Y-107087200D02*
X134372380Y-107039580D01*
X134372380Y-107039580D02*
X134372380Y-106706247D01*
X134372380Y-106706247D02*
X134524761Y-106706247D01*
X154317619Y-91847200D02*
X154203333Y-91894819D01*
X154203333Y-91894819D02*
X154012857Y-91894819D01*
X154012857Y-91894819D02*
X153936666Y-91847200D01*
X153936666Y-91847200D02*
X153898571Y-91799580D01*
X153898571Y-91799580D02*
X153860476Y-91704342D01*
X153860476Y-91704342D02*
X153860476Y-91609104D01*
X153860476Y-91609104D02*
X153898571Y-91513866D01*
X153898571Y-91513866D02*
X153936666Y-91466247D01*
X153936666Y-91466247D02*
X154012857Y-91418628D01*
X154012857Y-91418628D02*
X154165238Y-91371009D01*
X154165238Y-91371009D02*
X154241428Y-91323390D01*
X154241428Y-91323390D02*
X154279523Y-91275771D01*
X154279523Y-91275771D02*
X154317619Y-91180533D01*
X154317619Y-91180533D02*
X154317619Y-91085295D01*
X154317619Y-91085295D02*
X154279523Y-90990057D01*
X154279523Y-90990057D02*
X154241428Y-90942438D01*
X154241428Y-90942438D02*
X154165238Y-90894819D01*
X154165238Y-90894819D02*
X153974761Y-90894819D01*
X153974761Y-90894819D02*
X153860476Y-90942438D01*
X153365237Y-90894819D02*
X153212856Y-90894819D01*
X153212856Y-90894819D02*
X153136666Y-90942438D01*
X153136666Y-90942438D02*
X153060475Y-91037676D01*
X153060475Y-91037676D02*
X153022380Y-91228152D01*
X153022380Y-91228152D02*
X153022380Y-91561485D01*
X153022380Y-91561485D02*
X153060475Y-91751961D01*
X153060475Y-91751961D02*
X153136666Y-91847200D01*
X153136666Y-91847200D02*
X153212856Y-91894819D01*
X153212856Y-91894819D02*
X153365237Y-91894819D01*
X153365237Y-91894819D02*
X153441428Y-91847200D01*
X153441428Y-91847200D02*
X153517618Y-91751961D01*
X153517618Y-91751961D02*
X153555714Y-91561485D01*
X153555714Y-91561485D02*
X153555714Y-91228152D01*
X153555714Y-91228152D02*
X153517618Y-91037676D01*
X153517618Y-91037676D02*
X153441428Y-90942438D01*
X153441428Y-90942438D02*
X153365237Y-90894819D01*
D11*
%TO.C,R1*%
X145302500Y-94377742D02*
X145302500Y-94852258D01*
X144257500Y-94377742D02*
X144257500Y-94852258D01*
%TO.C,R3*%
X149272258Y-84342500D02*
X148797742Y-84342500D01*
X149272258Y-83297500D02*
X148797742Y-83297500D01*
%TO.C,R2*%
X149272258Y-81897500D02*
X148797742Y-81897500D01*
X149272258Y-80852500D02*
X148797742Y-80852500D01*
%TO.C,R5*%
X148702500Y-87867258D02*
X148702500Y-87392742D01*
X149747500Y-87867258D02*
X149747500Y-87392742D01*
%TO.C,R4*%
X144892500Y-88502258D02*
X144892500Y-88027742D01*
X145937500Y-88502258D02*
X145937500Y-88027742D01*
D10*
%TO.C,U2*%
X156845000Y-68580000D02*
X156845000Y-114300000D01*
X149010000Y-74440000D02*
X149010000Y-67310000D01*
X147320000Y-115570000D02*
X155575000Y-115570000D01*
X147320000Y-115570000D02*
X139700000Y-115570000D01*
X138010000Y-74440000D02*
X149010000Y-74440000D01*
X138010000Y-67310000D02*
X138010000Y-74440000D01*
X132080000Y-115570000D02*
X139700000Y-115570000D01*
X132080000Y-67310000D02*
X156210000Y-67310000D01*
X130810000Y-68580000D02*
X130810000Y-114300000D01*
X155575000Y-115570000D02*
G75*
G03*
X156845000Y-114300000I1J1269999D01*
G01*
X156845000Y-68580000D02*
G75*
G03*
X155575000Y-67310000I-1269999J1D01*
G01*
X130810000Y-114300000D02*
G75*
G03*
X132080000Y-115570000I1270000J0D01*
G01*
X132080000Y-67310000D02*
G75*
G03*
X130810000Y-68580000I0J-1270000D01*
G01*
X156101051Y-113030000D02*
G75*
G03*
X152508949Y-113030000I-1796051J0D01*
G01*
X152508949Y-113030000D02*
G75*
G03*
X156101051Y-113030000I1796051J0D01*
G01*
X156101051Y-69850000D02*
G75*
G03*
X152508949Y-69850000I-1796051J0D01*
G01*
X152508949Y-69850000D02*
G75*
G03*
X156101051Y-69850000I1796051J0D01*
G01*
X135146051Y-113030000D02*
G75*
G03*
X131553949Y-113030000I-1796051J0D01*
G01*
X131553949Y-113030000D02*
G75*
G03*
X135146051Y-113030000I1796051J0D01*
G01*
X135146051Y-69850000D02*
G75*
G03*
X131553949Y-69850000I-1796051J0D01*
G01*
X131553949Y-69850000D02*
G75*
G03*
X135146051Y-69850000I1796051J0D01*
G01*
%TD*%
D12*
%TO.C,U2*%
X155575000Y-73660000D03*
X155575000Y-76200000D03*
X155575000Y-78740000D03*
X155575000Y-81280000D03*
X155575000Y-83820000D03*
X155575000Y-86360000D03*
X155575000Y-88900000D03*
X155575000Y-91440000D03*
X155575000Y-93980000D03*
X155575000Y-96520000D03*
X155575000Y-99060000D03*
X155575000Y-101600000D03*
X155575000Y-104140000D03*
X155575000Y-106680000D03*
X155575000Y-109220000D03*
X132080000Y-109220000D03*
X132080000Y-106680000D03*
X132080000Y-104140000D03*
X132080000Y-101600000D03*
X132080000Y-99060000D03*
X132080000Y-96520000D03*
X132080000Y-93980000D03*
X132080000Y-91440000D03*
X132080000Y-88900000D03*
X132080000Y-86360000D03*
X132080000Y-83820000D03*
X132080000Y-81280000D03*
X132080000Y-78740000D03*
X132080000Y-76200000D03*
X132080000Y-73660000D03*
%TD*%
M02*
